G04 #@! TF.GenerationSoftware,KiCad,Pcbnew,8.0.3*
G04 #@! TF.CreationDate,2024-06-14T18:21:21-07:00*
G04 #@! TF.ProjectId,Keyboard,4b657962-6f61-4726-942e-6b696361645f,rev?*
G04 #@! TF.SameCoordinates,Original*
G04 #@! TF.FileFunction,Soldermask,Top*
G04 #@! TF.FilePolarity,Negative*
%FSLAX46Y46*%
G04 Gerber Fmt 4.6, Leading zero omitted, Abs format (unit mm)*
G04 Created by KiCad (PCBNEW 8.0.3) date 2024-06-14 18:21:21*
%MOMM*%
%LPD*%
G01*
G04 APERTURE LIST*
G04 Aperture macros list*
%AMRoundRect*
0 Rectangle with rounded corners*
0 $1 Rounding radius*
0 $2 $3 $4 $5 $6 $7 $8 $9 X,Y pos of 4 corners*
0 Add a 4 corners polygon primitive as box body*
4,1,4,$2,$3,$4,$5,$6,$7,$8,$9,$2,$3,0*
0 Add four circle primitives for the rounded corners*
1,1,$1+$1,$2,$3*
1,1,$1+$1,$4,$5*
1,1,$1+$1,$6,$7*
1,1,$1+$1,$8,$9*
0 Add four rect primitives between the rounded corners*
20,1,$1+$1,$2,$3,$4,$5,0*
20,1,$1+$1,$4,$5,$6,$7,0*
20,1,$1+$1,$6,$7,$8,$9,0*
20,1,$1+$1,$8,$9,$2,$3,0*%
G04 Aperture macros list end*
%ADD10C,1.750000*%
%ADD11RoundRect,0.150000X0.150000X-0.587500X0.150000X0.587500X-0.150000X0.587500X-0.150000X-0.587500X0*%
%ADD12RoundRect,0.140000X0.170000X-0.140000X0.170000X0.140000X-0.170000X0.140000X-0.170000X-0.140000X0*%
%ADD13C,0.650000*%
%ADD14RoundRect,0.150000X-0.425000X0.150000X-0.425000X-0.150000X0.425000X-0.150000X0.425000X0.150000X0*%
%ADD15RoundRect,0.075000X-0.500000X0.075000X-0.500000X-0.075000X0.500000X-0.075000X0.500000X0.075000X0*%
%ADD16O,2.100000X1.000000*%
%ADD17O,1.800000X1.000000*%
%ADD18RoundRect,0.150000X0.150000X-0.825000X0.150000X0.825000X-0.150000X0.825000X-0.150000X-0.825000X0*%
%ADD19RoundRect,0.140000X-0.170000X0.140000X-0.170000X-0.140000X0.170000X-0.140000X0.170000X0.140000X0*%
%ADD20RoundRect,0.150000X0.296945X-0.528659X-0.007167X0.606304X-0.296945X0.528659X0.007167X-0.606304X0*%
%ADD21RoundRect,0.150000X0.512500X0.150000X-0.512500X0.150000X-0.512500X-0.150000X0.512500X-0.150000X0*%
%ADD22C,3.300000*%
%ADD23RoundRect,0.150000X0.423654X-0.433790X-0.163846X0.583790X-0.423654X0.433790X0.163846X-0.583790X0*%
%ADD24RoundRect,0.140000X0.217224X-0.036244X0.077224X0.206244X-0.217224X0.036244X-0.077224X-0.206244X0*%
%ADD25RoundRect,0.140000X0.200442X-0.091230X0.127973X0.179229X-0.200442X0.091230X-0.127973X-0.179229X0*%
%ADD26O,3.000000X2.000000*%
G04 APERTURE END LIST*
D10*
G04 #@! TO.C,H5*
X102893097Y-260084801D03*
X112706903Y-257455199D03*
G04 #@! TD*
D11*
G04 #@! TO.C,U11*
X99620000Y-239837500D03*
X101520000Y-239837500D03*
X100570000Y-237962500D03*
G04 #@! TD*
D10*
G04 #@! TO.C,H7*
X124065000Y-255950000D03*
X134225000Y-255950000D03*
G04 #@! TD*
D12*
G04 #@! TO.C,C36*
X136250000Y-197380000D03*
X136250000Y-196420000D03*
G04 #@! TD*
D11*
G04 #@! TO.C,U12*
X128195000Y-256887500D03*
X130095000Y-256887500D03*
X129145000Y-255012500D03*
G04 #@! TD*
G04 #@! TO.C,U25*
X194870000Y-223787500D03*
X196770000Y-223787500D03*
X195820000Y-221912500D03*
G04 #@! TD*
G04 #@! TO.C,U9*
X99620000Y-201737500D03*
X101520000Y-201737500D03*
X100570000Y-199862500D03*
G04 #@! TD*
D12*
G04 #@! TO.C,C37*
X193450000Y-223360000D03*
X193450000Y-222400000D03*
G04 #@! TD*
G04 #@! TO.C,C33*
X155300000Y-218330000D03*
X155300000Y-217370000D03*
G04 #@! TD*
D10*
G04 #@! TO.C,H18*
X171690000Y-222850000D03*
X181850000Y-222850000D03*
G04 #@! TD*
G04 #@! TO.C,H19*
X133590000Y-196800000D03*
X143750000Y-196800000D03*
G04 #@! TD*
D13*
G04 #@! TO.C,J4*
X71760000Y-248060000D03*
X71760000Y-253840000D03*
D14*
X72835000Y-247750000D03*
X72835000Y-248550000D03*
D15*
X72835000Y-249700000D03*
X72835000Y-250700000D03*
X72835000Y-251200000D03*
X72835000Y-252200000D03*
D14*
X72835000Y-253350000D03*
X72835000Y-254150000D03*
X72835000Y-254150000D03*
X72835000Y-253350000D03*
D15*
X72835000Y-252700000D03*
X72835000Y-251700000D03*
X72835000Y-250200000D03*
X72835000Y-249200000D03*
D14*
X72835000Y-248550000D03*
X72835000Y-247750000D03*
D16*
X72260000Y-246630000D03*
D17*
X68080000Y-246630000D03*
D16*
X72260000Y-255270000D03*
D17*
X68080000Y-255270000D03*
G04 #@! TD*
D18*
G04 #@! TO.C,U6*
X128655000Y-244425000D03*
X129925000Y-244425000D03*
X131195000Y-244425000D03*
X132465000Y-244425000D03*
X133735000Y-244425000D03*
X135005000Y-244425000D03*
X136275000Y-244425000D03*
X137545000Y-244425000D03*
X137545000Y-239475000D03*
X136275000Y-239475000D03*
X135005000Y-239475000D03*
X133735000Y-239475000D03*
X132465000Y-239475000D03*
X131195000Y-239475000D03*
X129925000Y-239475000D03*
X128655000Y-239475000D03*
G04 #@! TD*
D19*
G04 #@! TO.C,C18*
X101350000Y-242490000D03*
X101350000Y-243450000D03*
G04 #@! TD*
D12*
G04 #@! TO.C,C29*
X117350000Y-218430000D03*
X117350000Y-217470000D03*
G04 #@! TD*
D10*
G04 #@! TO.C,H17*
X133590000Y-215850000D03*
X143750000Y-215850000D03*
G04 #@! TD*
D12*
G04 #@! TO.C,C28*
X117350000Y-199200000D03*
X117350000Y-198240000D03*
G04 #@! TD*
D11*
G04 #@! TO.C,U18*
X137720000Y-235837500D03*
X139620000Y-235837500D03*
X138670000Y-233962500D03*
G04 #@! TD*
D20*
G04 #@! TO.C,U13*
X107125013Y-259921434D03*
X108960272Y-259429677D03*
X107557357Y-257864445D03*
G04 #@! TD*
D10*
G04 #@! TO.C,H20*
X171690000Y-241900000D03*
X181850000Y-241900000D03*
G04 #@! TD*
D11*
G04 #@! TO.C,U29*
X175820000Y-242837500D03*
X177720000Y-242837500D03*
X176770000Y-240962500D03*
G04 #@! TD*
D12*
G04 #@! TO.C,C35*
X174350000Y-204410000D03*
X174350000Y-203450000D03*
G04 #@! TD*
D10*
G04 #@! TO.C,H15*
X152640000Y-217850000D03*
X162800000Y-217850000D03*
G04 #@! TD*
D18*
G04 #@! TO.C,U5*
X103405000Y-247425000D03*
X104675000Y-247425000D03*
X105945000Y-247425000D03*
X107215000Y-247425000D03*
X108485000Y-247425000D03*
X109755000Y-247425000D03*
X111025000Y-247425000D03*
X112295000Y-247425000D03*
X112295000Y-242475000D03*
X111025000Y-242475000D03*
X109755000Y-242475000D03*
X108485000Y-242475000D03*
X107215000Y-242475000D03*
X105945000Y-242475000D03*
X104675000Y-242475000D03*
X103405000Y-242475000D03*
G04 #@! TD*
D11*
G04 #@! TO.C,U20*
X156770000Y-199737500D03*
X158670000Y-199737500D03*
X157720000Y-197862500D03*
G04 #@! TD*
D12*
G04 #@! TO.C,C22*
X98200000Y-220110000D03*
X98200000Y-219150000D03*
G04 #@! TD*
D21*
G04 #@! TO.C,U31*
X81327500Y-214232500D03*
X81327500Y-213282500D03*
X81327500Y-212332500D03*
X79052500Y-212332500D03*
X79052500Y-214232500D03*
G04 #@! TD*
D12*
G04 #@! TO.C,C34*
X155350000Y-237280000D03*
X155350000Y-236320000D03*
G04 #@! TD*
G04 #@! TO.C,C17*
X98350000Y-201430000D03*
X98350000Y-200470000D03*
G04 #@! TD*
D22*
G04 #@! TO.C,*
X88250000Y-247720000D03*
G04 #@! TD*
D10*
G04 #@! TO.C,H11*
X152640000Y-198800000D03*
X162800000Y-198800000D03*
G04 #@! TD*
D12*
G04 #@! TO.C,C31*
X117150000Y-237480000D03*
X117150000Y-236520000D03*
G04 #@! TD*
D22*
G04 #@! TO.C,*
X186510000Y-232200000D03*
G04 #@! TD*
D23*
G04 #@! TO.C,U14*
X87606026Y-268286899D03*
X89251474Y-267336900D03*
X87491250Y-266188101D03*
G04 #@! TD*
D11*
G04 #@! TO.C,U21*
X156770000Y-218787500D03*
X158670000Y-218787500D03*
X157720000Y-216912500D03*
G04 #@! TD*
G04 #@! TO.C,U15*
X137720000Y-216787500D03*
X139620000Y-216787500D03*
X138670000Y-214912500D03*
G04 #@! TD*
D18*
G04 #@! TO.C,U7*
X157855000Y-245225000D03*
X159125000Y-245225000D03*
X160395000Y-245225000D03*
X161665000Y-245225000D03*
X162935000Y-245225000D03*
X164205000Y-245225000D03*
X165475000Y-245225000D03*
X166745000Y-245225000D03*
X166745000Y-240275000D03*
X165475000Y-240275000D03*
X164205000Y-240275000D03*
X162935000Y-240275000D03*
X161665000Y-240275000D03*
X160395000Y-240275000D03*
X159125000Y-240275000D03*
X157855000Y-240275000D03*
G04 #@! TD*
D10*
G04 #@! TO.C,H10*
X190740000Y-203800000D03*
X200900000Y-203800000D03*
G04 #@! TD*
G04 #@! TO.C,H21*
X95490000Y-238900000D03*
X105650000Y-238900000D03*
G04 #@! TD*
D12*
G04 #@! TO.C,C23*
X98300000Y-239410000D03*
X98300000Y-238450000D03*
G04 #@! TD*
G04 #@! TO.C,C40*
X193600000Y-242460000D03*
X193600000Y-241500000D03*
G04 #@! TD*
G04 #@! TO.C,C39*
X174550000Y-223130000D03*
X174550000Y-222170000D03*
G04 #@! TD*
G04 #@! TO.C,C38*
X193562500Y-204100000D03*
X193562500Y-203140000D03*
G04 #@! TD*
D18*
G04 #@! TO.C,U8*
X180905000Y-250175000D03*
X182175000Y-250175000D03*
X183445000Y-250175000D03*
X184715000Y-250175000D03*
X185985000Y-250175000D03*
X187255000Y-250175000D03*
X188525000Y-250175000D03*
X189795000Y-250175000D03*
X189795000Y-245225000D03*
X188525000Y-245225000D03*
X187255000Y-245225000D03*
X185985000Y-245225000D03*
X184715000Y-245225000D03*
X183445000Y-245225000D03*
X182175000Y-245225000D03*
X180905000Y-245225000D03*
G04 #@! TD*
D10*
G04 #@! TO.C,H16*
X171690000Y-203800000D03*
X181850000Y-203800000D03*
G04 #@! TD*
D24*
G04 #@! TO.C,C26*
X86080000Y-268281384D03*
X85600000Y-267450000D03*
G04 #@! TD*
D11*
G04 #@! TO.C,U17*
X118670000Y-218787500D03*
X120570000Y-218787500D03*
X119620000Y-216912500D03*
G04 #@! TD*
D19*
G04 #@! TO.C,C19*
X127300000Y-239070000D03*
X127300000Y-240030000D03*
G04 #@! TD*
D10*
G04 #@! TO.C,H3*
X95490000Y-219850000D03*
X105650000Y-219850000D03*
G04 #@! TD*
D11*
G04 #@! TO.C,U26*
X194870000Y-204737500D03*
X196770000Y-204737500D03*
X195820000Y-202862500D03*
G04 #@! TD*
D25*
G04 #@! TO.C,C25*
X105724233Y-259913644D03*
X105475767Y-258986356D03*
G04 #@! TD*
D22*
G04 #@! TO.C,*
X186310000Y-213320000D03*
G04 #@! TD*
D10*
G04 #@! TO.C,H2*
X114540000Y-198800000D03*
X124700000Y-198800000D03*
G04 #@! TD*
G04 #@! TO.C,H14*
X133590000Y-234900000D03*
X143750000Y-234900000D03*
G04 #@! TD*
D11*
G04 #@! TO.C,U24*
X137720000Y-197737500D03*
X139620000Y-197737500D03*
X138670000Y-195862500D03*
G04 #@! TD*
D10*
G04 #@! TO.C,H8*
X190740000Y-241900000D03*
X200900000Y-241900000D03*
G04 #@! TD*
D11*
G04 #@! TO.C,U23*
X175820000Y-204737500D03*
X177720000Y-204737500D03*
X176770000Y-202862500D03*
G04 #@! TD*
D22*
G04 #@! TO.C,*
X139040000Y-249360000D03*
G04 #@! TD*
D12*
G04 #@! TO.C,C41*
X174550000Y-242300000D03*
X174550000Y-241340000D03*
G04 #@! TD*
D11*
G04 #@! TO.C,U22*
X156770000Y-237837500D03*
X158670000Y-237837500D03*
X157720000Y-235962500D03*
G04 #@! TD*
D10*
G04 #@! TO.C,H13*
X114540000Y-217850000D03*
X124700000Y-217850000D03*
G04 #@! TD*
D11*
G04 #@! TO.C,U19*
X118670000Y-237837500D03*
X120570000Y-237837500D03*
X119620000Y-235962500D03*
G04 #@! TD*
D10*
G04 #@! TO.C,H4*
X95490000Y-200800000D03*
X105650000Y-200800000D03*
G04 #@! TD*
D19*
G04 #@! TO.C,C21*
X179600000Y-244700000D03*
X179600000Y-245660000D03*
G04 #@! TD*
D10*
G04 #@! TO.C,H6*
X83560591Y-269540000D03*
X92359409Y-264460000D03*
G04 #@! TD*
D19*
G04 #@! TO.C,C20*
X156350000Y-240220000D03*
X156350000Y-241180000D03*
G04 #@! TD*
D11*
G04 #@! TO.C,U16*
X118670000Y-199737500D03*
X120570000Y-199737500D03*
X119620000Y-197862500D03*
G04 #@! TD*
D12*
G04 #@! TO.C,C24*
X126845000Y-256597500D03*
X126845000Y-255637500D03*
G04 #@! TD*
D22*
G04 #@! TO.C,*
X100380000Y-210510000D03*
G04 #@! TD*
D11*
G04 #@! TO.C,U28*
X194870000Y-242837500D03*
X196770000Y-242837500D03*
X195820000Y-240962500D03*
G04 #@! TD*
D12*
G04 #@! TO.C,C32*
X155400000Y-199610000D03*
X155400000Y-198650000D03*
G04 #@! TD*
D11*
G04 #@! TO.C,U10*
X99620000Y-220787500D03*
X101520000Y-220787500D03*
X100570000Y-218912500D03*
G04 #@! TD*
D10*
G04 #@! TO.C,H9*
X190740000Y-222850000D03*
X200900000Y-222850000D03*
G04 #@! TD*
G04 #@! TO.C,H12*
X114540000Y-236900000D03*
X124700000Y-236900000D03*
G04 #@! TD*
D11*
G04 #@! TO.C,U27*
X175820000Y-223787500D03*
X177720000Y-223787500D03*
X176770000Y-221912500D03*
G04 #@! TD*
D12*
G04 #@! TO.C,C27*
X136450000Y-216480000D03*
X136450000Y-215520000D03*
G04 #@! TD*
D22*
G04 #@! TO.C,*
X138770000Y-206540000D03*
G04 #@! TD*
D10*
G04 #@! TO.C,H1*
X152640000Y-236900000D03*
X162800000Y-236900000D03*
G04 #@! TD*
D12*
G04 #@! TO.C,C30*
X136350000Y-235510000D03*
X136350000Y-234550000D03*
G04 #@! TD*
D26*
G04 #@! TO.C,U1*
X85720000Y-197710000D03*
X85720000Y-200250000D03*
X85720000Y-202790000D03*
X85720000Y-205330000D03*
X85720000Y-207870000D03*
X85720000Y-210410000D03*
X85720000Y-212950000D03*
X85720000Y-215490000D03*
X85720000Y-218030000D03*
X85720000Y-220570000D03*
X85720000Y-223110000D03*
X85720000Y-225650000D03*
X85720000Y-228190000D03*
X70480000Y-228190000D03*
X70480000Y-225650000D03*
X70480000Y-223110000D03*
X70480000Y-220570000D03*
X70480000Y-218030000D03*
X70480000Y-215490000D03*
X70480000Y-212950000D03*
X70480000Y-210410000D03*
X70480000Y-207870000D03*
X70480000Y-205330000D03*
X70480000Y-202790000D03*
X70480000Y-200250000D03*
X70480000Y-197710000D03*
G04 #@! TD*
M02*
