G04 #@! TF.GenerationSoftware,KiCad,Pcbnew,8.0.3*
G04 #@! TF.CreationDate,2024-06-14T18:21:21-07:00*
G04 #@! TF.ProjectId,Keyboard,4b657962-6f61-4726-942e-6b696361645f,rev?*
G04 #@! TF.SameCoordinates,Original*
G04 #@! TF.FileFunction,Legend,Bot*
G04 #@! TF.FilePolarity,Positive*
%FSLAX46Y46*%
G04 Gerber Fmt 4.6, Leading zero omitted, Abs format (unit mm)*
G04 Created by KiCad (PCBNEW 8.0.3) date 2024-06-14 18:21:21*
%MOMM*%
%LPD*%
G01*
G04 APERTURE LIST*
%ADD10C,0.150000*%
%ADD11C,0.120000*%
%ADD12C,1.750000*%
%ADD13C,0.650000*%
%ADD14O,2.100000X1.000000*%
%ADD15O,1.800000X1.000000*%
%ADD16C,3.300000*%
%ADD17O,3.000000X2.000000*%
G04 APERTURE END LIST*
D10*
X77338095Y-194664819D02*
X77338095Y-195474342D01*
X77338095Y-195474342D02*
X77385714Y-195569580D01*
X77385714Y-195569580D02*
X77433333Y-195617200D01*
X77433333Y-195617200D02*
X77528571Y-195664819D01*
X77528571Y-195664819D02*
X77719047Y-195664819D01*
X77719047Y-195664819D02*
X77814285Y-195617200D01*
X77814285Y-195617200D02*
X77861904Y-195569580D01*
X77861904Y-195569580D02*
X77909523Y-195474342D01*
X77909523Y-195474342D02*
X77909523Y-194664819D01*
X78909523Y-195664819D02*
X78338095Y-195664819D01*
X78623809Y-195664819D02*
X78623809Y-194664819D01*
X78623809Y-194664819D02*
X78528571Y-194807676D01*
X78528571Y-194807676D02*
X78433333Y-194902914D01*
X78433333Y-194902914D02*
X78338095Y-194950533D01*
D11*
G04 #@! TO.C,U1*
X68480000Y-196210000D02*
X68480001Y-229690000D01*
X68480001Y-229690000D02*
X87720000Y-229690000D01*
X74893334Y-196210000D02*
X68480000Y-196210000D01*
X74893334Y-196570000D02*
X74893334Y-196210000D01*
X81306666Y-196210000D02*
X81306666Y-196570000D01*
X81306666Y-196570000D02*
X74893334Y-196570000D01*
X87719999Y-196210000D02*
X81306666Y-196210000D01*
X87720000Y-229690000D02*
X87719999Y-196210000D01*
G04 #@! TD*
%LPC*%
D12*
G04 #@! TO.C,H5*
X102893097Y-260084801D03*
X112706903Y-257455199D03*
G04 #@! TD*
G04 #@! TO.C,H7*
X124065000Y-255950000D03*
X134225000Y-255950000D03*
G04 #@! TD*
G04 #@! TO.C,H18*
X171690000Y-222850000D03*
X181850000Y-222850000D03*
G04 #@! TD*
G04 #@! TO.C,H19*
X133590000Y-196800000D03*
X143750000Y-196800000D03*
G04 #@! TD*
D13*
G04 #@! TO.C,J4*
X71760000Y-248060000D03*
X71760000Y-253840000D03*
D14*
X72260000Y-246630000D03*
D15*
X68080000Y-246630000D03*
D14*
X72260000Y-255270000D03*
D15*
X68080000Y-255270000D03*
G04 #@! TD*
D12*
G04 #@! TO.C,H17*
X133590000Y-215850000D03*
X143750000Y-215850000D03*
G04 #@! TD*
G04 #@! TO.C,H20*
X171690000Y-241900000D03*
X181850000Y-241900000D03*
G04 #@! TD*
G04 #@! TO.C,H15*
X152640000Y-217850000D03*
X162800000Y-217850000D03*
G04 #@! TD*
D16*
G04 #@! TO.C,*
X88250000Y-247720000D03*
G04 #@! TD*
D12*
G04 #@! TO.C,H11*
X152640000Y-198800000D03*
X162800000Y-198800000D03*
G04 #@! TD*
D16*
G04 #@! TO.C,*
X186510000Y-232200000D03*
G04 #@! TD*
D12*
G04 #@! TO.C,H10*
X190740000Y-203800000D03*
X200900000Y-203800000D03*
G04 #@! TD*
G04 #@! TO.C,H21*
X95490000Y-238900000D03*
X105650000Y-238900000D03*
G04 #@! TD*
G04 #@! TO.C,H16*
X171690000Y-203800000D03*
X181850000Y-203800000D03*
G04 #@! TD*
G04 #@! TO.C,H3*
X95490000Y-219850000D03*
X105650000Y-219850000D03*
G04 #@! TD*
D16*
G04 #@! TO.C,*
X186310000Y-213320000D03*
G04 #@! TD*
D12*
G04 #@! TO.C,H2*
X114540000Y-198800000D03*
X124700000Y-198800000D03*
G04 #@! TD*
G04 #@! TO.C,H14*
X133590000Y-234900000D03*
X143750000Y-234900000D03*
G04 #@! TD*
G04 #@! TO.C,H8*
X190740000Y-241900000D03*
X200900000Y-241900000D03*
G04 #@! TD*
D16*
G04 #@! TO.C,*
X139040000Y-249360000D03*
G04 #@! TD*
D12*
G04 #@! TO.C,H13*
X114540000Y-217850000D03*
X124700000Y-217850000D03*
G04 #@! TD*
G04 #@! TO.C,H4*
X95490000Y-200800000D03*
X105650000Y-200800000D03*
G04 #@! TD*
G04 #@! TO.C,H6*
X83560591Y-269540000D03*
X92359409Y-264460000D03*
G04 #@! TD*
D16*
G04 #@! TO.C,*
X100380000Y-210510000D03*
G04 #@! TD*
D12*
G04 #@! TO.C,H9*
X190740000Y-222850000D03*
X200900000Y-222850000D03*
G04 #@! TD*
G04 #@! TO.C,H12*
X114540000Y-236900000D03*
X124700000Y-236900000D03*
G04 #@! TD*
D16*
G04 #@! TO.C,*
X138770000Y-206540000D03*
G04 #@! TD*
D12*
G04 #@! TO.C,H1*
X152640000Y-236900000D03*
X162800000Y-236900000D03*
G04 #@! TD*
D17*
G04 #@! TO.C,U1*
X85720000Y-197710000D03*
X85720000Y-200250000D03*
X85720000Y-202790000D03*
X85720000Y-205330000D03*
X85720000Y-207870000D03*
X85720000Y-210410000D03*
X85720000Y-212950000D03*
X85720000Y-215490000D03*
X85720000Y-218030000D03*
X85720000Y-220570000D03*
X85720000Y-223110000D03*
X85720000Y-225650000D03*
X85720000Y-228190000D03*
X70480000Y-228190000D03*
X70480000Y-225650000D03*
X70480000Y-223110000D03*
X70480000Y-220570000D03*
X70480000Y-218030000D03*
X70480000Y-215490000D03*
X70480000Y-212950000D03*
X70480000Y-210410000D03*
X70480000Y-207870000D03*
X70480000Y-205330000D03*
X70480000Y-202790000D03*
X70480000Y-200250000D03*
X70480000Y-197710000D03*
G04 #@! TD*
%LPD*%
M02*
