M48
; DRILL file {KiCad 8.0.3} date 2024-06-14T18:21:21-0700
; FORMAT={-:-/ absolute / metric / decimal}
; #@! TF.CreationDate,2024-06-14T18:21:21-07:00
; #@! TF.GenerationSoftware,Kicad,Pcbnew,8.0.3
; #@! TF.FileFunction,Plated,1,2,PTH
FMAT,2
METRIC
; #@! TA.AperFunction,Plated,PTH,ViaDrill
T1C0.300
; #@! TA.AperFunction,Plated,PTH,ComponentDrill
T2C0.600
; #@! TA.AperFunction,Plated,PTH,ComponentDrill
T3C1.000
%
G90
G05
T1
X96.3Y-258.46
X100.79Y-206.67
X101.12Y-250.24
X110.1Y-240.75
X110.6Y-244.45
X111.35Y-245.2
X113.63Y-249.41
X120.56Y-250.84
X124.74Y-226.95
X134.6Y-241.2
X135.85Y-241.95
X136.85Y-242.7
X156.98Y-224.63
X163.6Y-241.95
X164.85Y-242.7
X166.1Y-243.45
X182.03Y-214.43
X186.5Y-246.65
X187.8Y-247.45
X189.0Y-248.15
X190.83Y-199.2
X195.77Y-217.83
T3
X70.48Y-197.71
X70.48Y-200.25
X70.48Y-202.79
X70.48Y-205.33
X70.48Y-207.87
X70.48Y-210.41
X70.48Y-212.95
X70.48Y-215.49
X70.48Y-218.03
X70.48Y-220.57
X70.48Y-223.11
X70.48Y-225.65
X70.48Y-228.19
X85.72Y-197.71
X85.72Y-200.25
X85.72Y-202.79
X85.72Y-205.33
X85.72Y-207.87
X85.72Y-210.41
X85.72Y-212.95
X85.72Y-215.49
X85.72Y-218.03
X85.72Y-220.57
X85.72Y-223.11
X85.72Y-225.65
X85.72Y-228.19
T2
G00X68.48Y-246.63
M15
G01X67.68Y-246.63
M16
G05
G00X68.48Y-255.27
M15
G01X67.68Y-255.27
M16
G05
G00X72.81Y-246.63
M15
G01X71.71Y-246.63
M16
G05
G00X72.81Y-255.27
M15
G01X71.71Y-255.27
M16
G05
M30
