M48
; DRILL file {KiCad 8.0.3} date 2024-06-14T18:21:21-0700
; FORMAT={-:-/ absolute / metric / decimal}
; #@! TF.CreationDate,2024-06-14T18:21:21-07:00
; #@! TF.GenerationSoftware,Kicad,Pcbnew,8.0.3
; #@! TF.FileFunction,NonPlated,1,2,NPTH
FMAT,2
METRIC
; #@! TA.AperFunction,NonPlated,NPTH,ComponentDrill
T1C0.650
; #@! TA.AperFunction,NonPlated,NPTH,ComponentDrill
T2C1.750
; #@! TA.AperFunction,NonPlated,NPTH,ComponentDrill
T3C3.300
%
G90
G05
T1
X71.76Y-248.06
X71.76Y-253.84
T2
X83.561Y-269.54
X92.359Y-264.46
X95.49Y-200.8
X95.49Y-219.85
X95.49Y-238.9
X102.893Y-260.085
X105.65Y-200.8
X105.65Y-219.85
X105.65Y-238.9
X112.707Y-257.455
X114.54Y-198.8
X114.54Y-217.85
X114.54Y-236.9
X124.065Y-255.95
X124.7Y-198.8
X124.7Y-217.85
X124.7Y-236.9
X133.59Y-196.8
X133.59Y-215.85
X133.59Y-234.9
X134.225Y-255.95
X143.75Y-196.8
X143.75Y-215.85
X143.75Y-234.9
X152.64Y-198.8
X152.64Y-217.85
X152.64Y-236.9
X162.8Y-198.8
X162.8Y-217.85
X162.8Y-236.9
X171.69Y-203.8
X171.69Y-222.85
X171.69Y-241.9
X181.85Y-203.8
X181.85Y-222.85
X181.85Y-241.9
X190.74Y-203.8
X190.74Y-222.85
X190.74Y-241.9
X200.9Y-203.8
X200.9Y-222.85
X200.9Y-241.9
T3
X88.25Y-247.72
X100.38Y-210.51
X138.77Y-206.54
X139.04Y-249.36
X186.31Y-213.32
X186.51Y-232.2
M30
