G04 #@! TF.GenerationSoftware,KiCad,Pcbnew,8.0.3*
G04 #@! TF.CreationDate,2024-06-14T18:21:21-07:00*
G04 #@! TF.ProjectId,Keyboard,4b657962-6f61-4726-942e-6b696361645f,rev?*
G04 #@! TF.SameCoordinates,Original*
G04 #@! TF.FileFunction,Soldermask,Bot*
G04 #@! TF.FilePolarity,Negative*
%FSLAX46Y46*%
G04 Gerber Fmt 4.6, Leading zero omitted, Abs format (unit mm)*
G04 Created by KiCad (PCBNEW 8.0.3) date 2024-06-14 18:21:21*
%MOMM*%
%LPD*%
G01*
G04 APERTURE LIST*
%ADD10C,1.750000*%
%ADD11C,0.650000*%
%ADD12O,2.100000X1.000000*%
%ADD13O,1.800000X1.000000*%
%ADD14C,3.300000*%
%ADD15O,3.000000X2.000000*%
G04 APERTURE END LIST*
D10*
G04 #@! TO.C,H5*
X102893097Y-260084801D03*
X112706903Y-257455199D03*
G04 #@! TD*
G04 #@! TO.C,H7*
X124065000Y-255950000D03*
X134225000Y-255950000D03*
G04 #@! TD*
G04 #@! TO.C,H18*
X171690000Y-222850000D03*
X181850000Y-222850000D03*
G04 #@! TD*
G04 #@! TO.C,H19*
X133590000Y-196800000D03*
X143750000Y-196800000D03*
G04 #@! TD*
D11*
G04 #@! TO.C,J4*
X71760000Y-248060000D03*
X71760000Y-253840000D03*
D12*
X72260000Y-246630000D03*
D13*
X68080000Y-246630000D03*
D12*
X72260000Y-255270000D03*
D13*
X68080000Y-255270000D03*
G04 #@! TD*
D10*
G04 #@! TO.C,H17*
X133590000Y-215850000D03*
X143750000Y-215850000D03*
G04 #@! TD*
G04 #@! TO.C,H20*
X171690000Y-241900000D03*
X181850000Y-241900000D03*
G04 #@! TD*
G04 #@! TO.C,H15*
X152640000Y-217850000D03*
X162800000Y-217850000D03*
G04 #@! TD*
D14*
G04 #@! TO.C,*
X88250000Y-247720000D03*
G04 #@! TD*
D10*
G04 #@! TO.C,H11*
X152640000Y-198800000D03*
X162800000Y-198800000D03*
G04 #@! TD*
D14*
G04 #@! TO.C,*
X186510000Y-232200000D03*
G04 #@! TD*
D10*
G04 #@! TO.C,H10*
X190740000Y-203800000D03*
X200900000Y-203800000D03*
G04 #@! TD*
G04 #@! TO.C,H21*
X95490000Y-238900000D03*
X105650000Y-238900000D03*
G04 #@! TD*
G04 #@! TO.C,H16*
X171690000Y-203800000D03*
X181850000Y-203800000D03*
G04 #@! TD*
G04 #@! TO.C,H3*
X95490000Y-219850000D03*
X105650000Y-219850000D03*
G04 #@! TD*
D14*
G04 #@! TO.C,*
X186310000Y-213320000D03*
G04 #@! TD*
D10*
G04 #@! TO.C,H2*
X114540000Y-198800000D03*
X124700000Y-198800000D03*
G04 #@! TD*
G04 #@! TO.C,H14*
X133590000Y-234900000D03*
X143750000Y-234900000D03*
G04 #@! TD*
G04 #@! TO.C,H8*
X190740000Y-241900000D03*
X200900000Y-241900000D03*
G04 #@! TD*
D14*
G04 #@! TO.C,*
X139040000Y-249360000D03*
G04 #@! TD*
D10*
G04 #@! TO.C,H13*
X114540000Y-217850000D03*
X124700000Y-217850000D03*
G04 #@! TD*
G04 #@! TO.C,H4*
X95490000Y-200800000D03*
X105650000Y-200800000D03*
G04 #@! TD*
G04 #@! TO.C,H6*
X83560591Y-269540000D03*
X92359409Y-264460000D03*
G04 #@! TD*
D14*
G04 #@! TO.C,*
X100380000Y-210510000D03*
G04 #@! TD*
D10*
G04 #@! TO.C,H9*
X190740000Y-222850000D03*
X200900000Y-222850000D03*
G04 #@! TD*
G04 #@! TO.C,H12*
X114540000Y-236900000D03*
X124700000Y-236900000D03*
G04 #@! TD*
D14*
G04 #@! TO.C,*
X138770000Y-206540000D03*
G04 #@! TD*
D10*
G04 #@! TO.C,H1*
X152640000Y-236900000D03*
X162800000Y-236900000D03*
G04 #@! TD*
D15*
G04 #@! TO.C,U1*
X85720000Y-197710000D03*
X85720000Y-200250000D03*
X85720000Y-202790000D03*
X85720000Y-205330000D03*
X85720000Y-207870000D03*
X85720000Y-210410000D03*
X85720000Y-212950000D03*
X85720000Y-215490000D03*
X85720000Y-218030000D03*
X85720000Y-220570000D03*
X85720000Y-223110000D03*
X85720000Y-225650000D03*
X85720000Y-228190000D03*
X70480000Y-228190000D03*
X70480000Y-225650000D03*
X70480000Y-223110000D03*
X70480000Y-220570000D03*
X70480000Y-218030000D03*
X70480000Y-215490000D03*
X70480000Y-212950000D03*
X70480000Y-210410000D03*
X70480000Y-207870000D03*
X70480000Y-205330000D03*
X70480000Y-202790000D03*
X70480000Y-200250000D03*
X70480000Y-197710000D03*
G04 #@! TD*
M02*
