%TF.GenerationSoftware,KiCad,Pcbnew,8.0.3*%
%TF.CreationDate,2024-06-14T18:21:21-07:00*%
%TF.ProjectId,Keyboard,4b657962-6f61-4726-942e-6b696361645f,rev?*%
%TF.SameCoordinates,Original*%
%TF.FileFunction,Drillmap*%
%TF.FilePolarity,Positive*%
%FSLAX45Y45*%
G04 Gerber Fmt 4.5, Leading zero omitted, Abs format (unit mm)*
G04 Created by KiCad (PCBNEW 8.0.3) date 2024-06-14 18:21:21*
%MOMM*%
%LPD*%
G01*
G04 APERTURE LIST*
%ADD10C,0.050000*%
%ADD11C,0.200000*%
%ADD12C,0.100000*%
G04 APERTURE END LIST*
D10*
X16724500Y-19421000D02*
X20534500Y-19421000D01*
X12914500Y-18921000D02*
X12914500Y-18721000D01*
X9104500Y-19121000D02*
X11009500Y-19121000D01*
X14819500Y-18921000D02*
X16724500Y-18921000D01*
X12914500Y-18721000D02*
X14819500Y-18721000D01*
X6547000Y-25596000D02*
X6548000Y-19321000D01*
X20534500Y-19421000D02*
X20534500Y-25336000D01*
X14819500Y-25336000D02*
X13870000Y-26545000D01*
X13870000Y-26545000D02*
X10100000Y-27045000D01*
X8450222Y-27997500D02*
X6547000Y-25596000D01*
X16724500Y-18921000D02*
X16724500Y-19421000D01*
X14819500Y-18721000D02*
X14819500Y-18921000D01*
X20534500Y-25336000D02*
X14819500Y-25336000D01*
X11009500Y-18921000D02*
X12914500Y-18921000D01*
X9104500Y-19321000D02*
X9104500Y-19121000D01*
X6548000Y-19321000D02*
X9104500Y-19321000D01*
X11009500Y-19121000D02*
X11009500Y-18921000D01*
X10100000Y-27045000D02*
X8450222Y-27997500D01*
D11*
D12*
X9615000Y-25831000D02*
X9645000Y-25861000D01*
X9645000Y-25831000D02*
X9615000Y-25861000D01*
X10064000Y-20652000D02*
X10094000Y-20682000D01*
X10094000Y-20652000D02*
X10064000Y-20682000D01*
X10097000Y-25009000D02*
X10127000Y-25039000D01*
X10127000Y-25009000D02*
X10097000Y-25039000D01*
X10995000Y-24060000D02*
X11025000Y-24090000D01*
X11025000Y-24060000D02*
X10995000Y-24090000D01*
X11045000Y-24430000D02*
X11075000Y-24460000D01*
X11075000Y-24430000D02*
X11045000Y-24460000D01*
X11120000Y-24505000D02*
X11150000Y-24535000D01*
X11150000Y-24505000D02*
X11120000Y-24535000D01*
X11348000Y-24926000D02*
X11378000Y-24956000D01*
X11378000Y-24926000D02*
X11348000Y-24956000D01*
X12041000Y-25069000D02*
X12071000Y-25099000D01*
X12071000Y-25069000D02*
X12041000Y-25099000D01*
X12459000Y-22680000D02*
X12489000Y-22710000D01*
X12489000Y-22680000D02*
X12459000Y-22710000D01*
X13445000Y-24105000D02*
X13475000Y-24135000D01*
X13475000Y-24105000D02*
X13445000Y-24135000D01*
X13570000Y-24180000D02*
X13600000Y-24210000D01*
X13600000Y-24180000D02*
X13570000Y-24210000D01*
X13670000Y-24255000D02*
X13700000Y-24285000D01*
X13700000Y-24255000D02*
X13670000Y-24285000D01*
X15683000Y-22448000D02*
X15713000Y-22478000D01*
X15713000Y-22448000D02*
X15683000Y-22478000D01*
X16345000Y-24180000D02*
X16375000Y-24210000D01*
X16375000Y-24180000D02*
X16345000Y-24210000D01*
X16470000Y-24255000D02*
X16500000Y-24285000D01*
X16500000Y-24255000D02*
X16470000Y-24285000D01*
X16595000Y-24330000D02*
X16625000Y-24360000D01*
X16625000Y-24330000D02*
X16595000Y-24360000D01*
X18188000Y-21428000D02*
X18218000Y-21458000D01*
X18218000Y-21428000D02*
X18188000Y-21458000D01*
X18635000Y-24650000D02*
X18665000Y-24680000D01*
X18665000Y-24650000D02*
X18635000Y-24680000D01*
X18765000Y-24730000D02*
X18795000Y-24760000D01*
X18795000Y-24730000D02*
X18765000Y-24760000D01*
X18885000Y-24800000D02*
X18915000Y-24830000D01*
X18915000Y-24800000D02*
X18885000Y-24830000D01*
X19068000Y-19905000D02*
X19098000Y-19935000D01*
X19098000Y-19905000D02*
X19068000Y-19935000D01*
X19562000Y-21768000D02*
X19592000Y-21798000D01*
X19592000Y-21768000D02*
X19562000Y-21798000D01*
X6838000Y-24663000D02*
G75*
G02*
X6778000Y-24663000I-30000J0D01*
G01*
X6778000Y-24663000D02*
G75*
G02*
X6838000Y-24663000I30000J0D01*
G01*
X6848000Y-24633000D02*
X6768000Y-24633000D01*
X6768000Y-24693000D02*
G75*
G02*
X6768000Y-24633000I0J30000D01*
G01*
X6768000Y-24693000D02*
X6848000Y-24693000D01*
X6848000Y-24693000D02*
G75*
G03*
X6848000Y-24633000I0J30000D01*
G01*
X6838000Y-25527000D02*
G75*
G02*
X6778000Y-25527000I-30000J0D01*
G01*
X6778000Y-25527000D02*
G75*
G02*
X6838000Y-25527000I30000J0D01*
G01*
X6848000Y-25497000D02*
X6768000Y-25497000D01*
X6768000Y-25557000D02*
G75*
G02*
X6768000Y-25497000I0J30000D01*
G01*
X6768000Y-25557000D02*
X6848000Y-25557000D01*
X6848000Y-25557000D02*
G75*
G03*
X6848000Y-25497000I0J30000D01*
G01*
X7256000Y-24663000D02*
G75*
G02*
X7196000Y-24663000I-30000J0D01*
G01*
X7196000Y-24663000D02*
G75*
G02*
X7256000Y-24663000I30000J0D01*
G01*
X7281000Y-24633000D02*
X7171000Y-24633000D01*
X7171000Y-24693000D02*
G75*
G02*
X7171000Y-24633000I0J30000D01*
G01*
X7171000Y-24693000D02*
X7281000Y-24693000D01*
X7281000Y-24693000D02*
G75*
G03*
X7281000Y-24633000I0J30000D01*
G01*
X7256000Y-25527000D02*
G75*
G02*
X7196000Y-25527000I-30000J0D01*
G01*
X7196000Y-25527000D02*
G75*
G02*
X7256000Y-25527000I30000J0D01*
G01*
X7281000Y-25497000D02*
X7171000Y-25497000D01*
X7171000Y-25557000D02*
G75*
G02*
X7171000Y-25497000I0J30000D01*
G01*
X7171000Y-25557000D02*
X7281000Y-25557000D01*
X7281000Y-25557000D02*
G75*
G03*
X7281000Y-25497000I0J30000D01*
G01*
X7048000Y-19721000D02*
X7048000Y-19821000D01*
X6998000Y-19771000D02*
X7098000Y-19771000D01*
X7048000Y-19975000D02*
X7048000Y-20075000D01*
X6998000Y-20025000D02*
X7098000Y-20025000D01*
X7048000Y-20229000D02*
X7048000Y-20329000D01*
X6998000Y-20279000D02*
X7098000Y-20279000D01*
X7048000Y-20483000D02*
X7048000Y-20583000D01*
X6998000Y-20533000D02*
X7098000Y-20533000D01*
X7048000Y-20737000D02*
X7048000Y-20837000D01*
X6998000Y-20787000D02*
X7098000Y-20787000D01*
X7048000Y-20991000D02*
X7048000Y-21091000D01*
X6998000Y-21041000D02*
X7098000Y-21041000D01*
X7048000Y-21245000D02*
X7048000Y-21345000D01*
X6998000Y-21295000D02*
X7098000Y-21295000D01*
X7048000Y-21499000D02*
X7048000Y-21599000D01*
X6998000Y-21549000D02*
X7098000Y-21549000D01*
X7048000Y-21753000D02*
X7048000Y-21853000D01*
X6998000Y-21803000D02*
X7098000Y-21803000D01*
X7048000Y-22007000D02*
X7048000Y-22107000D01*
X6998000Y-22057000D02*
X7098000Y-22057000D01*
X7048000Y-22261000D02*
X7048000Y-22361000D01*
X6998000Y-22311000D02*
X7098000Y-22311000D01*
X7048000Y-22515000D02*
X7048000Y-22615000D01*
X6998000Y-22565000D02*
X7098000Y-22565000D01*
X7048000Y-22769000D02*
X7048000Y-22869000D01*
X6998000Y-22819000D02*
X7098000Y-22819000D01*
X8572000Y-19721000D02*
X8572000Y-19821000D01*
X8522000Y-19771000D02*
X8622000Y-19771000D01*
X8572000Y-19975000D02*
X8572000Y-20075000D01*
X8522000Y-20025000D02*
X8622000Y-20025000D01*
X8572000Y-20229000D02*
X8572000Y-20329000D01*
X8522000Y-20279000D02*
X8622000Y-20279000D01*
X8572000Y-20483000D02*
X8572000Y-20583000D01*
X8522000Y-20533000D02*
X8622000Y-20533000D01*
X8572000Y-20737000D02*
X8572000Y-20837000D01*
X8522000Y-20787000D02*
X8622000Y-20787000D01*
X8572000Y-20991000D02*
X8572000Y-21091000D01*
X8522000Y-21041000D02*
X8622000Y-21041000D01*
X8572000Y-21245000D02*
X8572000Y-21345000D01*
X8522000Y-21295000D02*
X8622000Y-21295000D01*
X8572000Y-21499000D02*
X8572000Y-21599000D01*
X8522000Y-21549000D02*
X8622000Y-21549000D01*
X8572000Y-21753000D02*
X8572000Y-21853000D01*
X8522000Y-21803000D02*
X8622000Y-21803000D01*
X8572000Y-22007000D02*
X8572000Y-22107000D01*
X8522000Y-22057000D02*
X8622000Y-22057000D01*
X8572000Y-22261000D02*
X8572000Y-22361000D01*
X8522000Y-22311000D02*
X8622000Y-22311000D01*
X8572000Y-22515000D02*
X8572000Y-22615000D01*
X8522000Y-22565000D02*
X8622000Y-22565000D01*
X8572000Y-22769000D02*
X8572000Y-22869000D01*
X8522000Y-22819000D02*
X8622000Y-22819000D01*
D11*
X6805277Y-28311484D02*
X6805277Y-28111484D01*
X6805277Y-28111484D02*
X6852896Y-28111484D01*
X6852896Y-28111484D02*
X6881467Y-28121008D01*
X6881467Y-28121008D02*
X6900515Y-28140055D01*
X6900515Y-28140055D02*
X6910039Y-28159103D01*
X6910039Y-28159103D02*
X6919562Y-28197198D01*
X6919562Y-28197198D02*
X6919562Y-28225769D01*
X6919562Y-28225769D02*
X6910039Y-28263865D01*
X6910039Y-28263865D02*
X6900515Y-28282912D01*
X6900515Y-28282912D02*
X6881467Y-28301960D01*
X6881467Y-28301960D02*
X6852896Y-28311484D01*
X6852896Y-28311484D02*
X6805277Y-28311484D01*
X7005277Y-28311484D02*
X7005277Y-28178150D01*
X7005277Y-28216246D02*
X7014801Y-28197198D01*
X7014801Y-28197198D02*
X7024324Y-28187674D01*
X7024324Y-28187674D02*
X7043372Y-28178150D01*
X7043372Y-28178150D02*
X7062420Y-28178150D01*
X7129086Y-28311484D02*
X7129086Y-28178150D01*
X7129086Y-28111484D02*
X7119562Y-28121008D01*
X7119562Y-28121008D02*
X7129086Y-28130531D01*
X7129086Y-28130531D02*
X7138610Y-28121008D01*
X7138610Y-28121008D02*
X7129086Y-28111484D01*
X7129086Y-28111484D02*
X7129086Y-28130531D01*
X7252896Y-28311484D02*
X7233848Y-28301960D01*
X7233848Y-28301960D02*
X7224324Y-28282912D01*
X7224324Y-28282912D02*
X7224324Y-28111484D01*
X7357658Y-28311484D02*
X7338610Y-28301960D01*
X7338610Y-28301960D02*
X7329086Y-28282912D01*
X7329086Y-28282912D02*
X7329086Y-28111484D01*
X7586229Y-28311484D02*
X7586229Y-28111484D01*
X7586229Y-28111484D02*
X7652896Y-28254341D01*
X7652896Y-28254341D02*
X7719562Y-28111484D01*
X7719562Y-28111484D02*
X7719562Y-28311484D01*
X7900515Y-28311484D02*
X7900515Y-28206722D01*
X7900515Y-28206722D02*
X7890991Y-28187674D01*
X7890991Y-28187674D02*
X7871943Y-28178150D01*
X7871943Y-28178150D02*
X7833848Y-28178150D01*
X7833848Y-28178150D02*
X7814801Y-28187674D01*
X7900515Y-28301960D02*
X7881467Y-28311484D01*
X7881467Y-28311484D02*
X7833848Y-28311484D01*
X7833848Y-28311484D02*
X7814801Y-28301960D01*
X7814801Y-28301960D02*
X7805277Y-28282912D01*
X7805277Y-28282912D02*
X7805277Y-28263865D01*
X7805277Y-28263865D02*
X7814801Y-28244817D01*
X7814801Y-28244817D02*
X7833848Y-28235293D01*
X7833848Y-28235293D02*
X7881467Y-28235293D01*
X7881467Y-28235293D02*
X7900515Y-28225769D01*
X7995753Y-28178150D02*
X7995753Y-28378150D01*
X7995753Y-28187674D02*
X8014801Y-28178150D01*
X8014801Y-28178150D02*
X8052896Y-28178150D01*
X8052896Y-28178150D02*
X8071943Y-28187674D01*
X8071943Y-28187674D02*
X8081467Y-28197198D01*
X8081467Y-28197198D02*
X8090991Y-28216246D01*
X8090991Y-28216246D02*
X8090991Y-28273388D01*
X8090991Y-28273388D02*
X8081467Y-28292436D01*
X8081467Y-28292436D02*
X8071943Y-28301960D01*
X8071943Y-28301960D02*
X8052896Y-28311484D01*
X8052896Y-28311484D02*
X8014801Y-28311484D01*
X8014801Y-28311484D02*
X7995753Y-28301960D01*
X8176705Y-28292436D02*
X8186229Y-28301960D01*
X8186229Y-28301960D02*
X8176705Y-28311484D01*
X8176705Y-28311484D02*
X8167182Y-28301960D01*
X8167182Y-28301960D02*
X8176705Y-28292436D01*
X8176705Y-28292436D02*
X8176705Y-28311484D01*
X8176705Y-28187674D02*
X8186229Y-28197198D01*
X8186229Y-28197198D02*
X8176705Y-28206722D01*
X8176705Y-28206722D02*
X8167182Y-28197198D01*
X8167182Y-28197198D02*
X8176705Y-28187674D01*
X8176705Y-28187674D02*
X8176705Y-28206722D01*
D12*
X6514500Y-28625000D02*
X6544500Y-28655000D01*
X6544500Y-28625000D02*
X6514500Y-28655000D01*
D11*
X6843372Y-28531484D02*
X6862420Y-28531484D01*
X6862420Y-28531484D02*
X6881467Y-28541008D01*
X6881467Y-28541008D02*
X6890991Y-28550531D01*
X6890991Y-28550531D02*
X6900515Y-28569579D01*
X6900515Y-28569579D02*
X6910039Y-28607674D01*
X6910039Y-28607674D02*
X6910039Y-28655293D01*
X6910039Y-28655293D02*
X6900515Y-28693388D01*
X6900515Y-28693388D02*
X6890991Y-28712436D01*
X6890991Y-28712436D02*
X6881467Y-28721960D01*
X6881467Y-28721960D02*
X6862420Y-28731484D01*
X6862420Y-28731484D02*
X6843372Y-28731484D01*
X6843372Y-28731484D02*
X6824324Y-28721960D01*
X6824324Y-28721960D02*
X6814801Y-28712436D01*
X6814801Y-28712436D02*
X6805277Y-28693388D01*
X6805277Y-28693388D02*
X6795753Y-28655293D01*
X6795753Y-28655293D02*
X6795753Y-28607674D01*
X6795753Y-28607674D02*
X6805277Y-28569579D01*
X6805277Y-28569579D02*
X6814801Y-28550531D01*
X6814801Y-28550531D02*
X6824324Y-28541008D01*
X6824324Y-28541008D02*
X6843372Y-28531484D01*
X6995753Y-28712436D02*
X7005277Y-28721960D01*
X7005277Y-28721960D02*
X6995753Y-28731484D01*
X6995753Y-28731484D02*
X6986229Y-28721960D01*
X6986229Y-28721960D02*
X6995753Y-28712436D01*
X6995753Y-28712436D02*
X6995753Y-28731484D01*
X7071943Y-28531484D02*
X7195753Y-28531484D01*
X7195753Y-28531484D02*
X7129086Y-28607674D01*
X7129086Y-28607674D02*
X7157658Y-28607674D01*
X7157658Y-28607674D02*
X7176705Y-28617198D01*
X7176705Y-28617198D02*
X7186229Y-28626722D01*
X7186229Y-28626722D02*
X7195753Y-28645769D01*
X7195753Y-28645769D02*
X7195753Y-28693388D01*
X7195753Y-28693388D02*
X7186229Y-28712436D01*
X7186229Y-28712436D02*
X7176705Y-28721960D01*
X7176705Y-28721960D02*
X7157658Y-28731484D01*
X7157658Y-28731484D02*
X7100515Y-28731484D01*
X7100515Y-28731484D02*
X7081467Y-28721960D01*
X7081467Y-28721960D02*
X7071943Y-28712436D01*
X7319562Y-28531484D02*
X7338610Y-28531484D01*
X7338610Y-28531484D02*
X7357658Y-28541008D01*
X7357658Y-28541008D02*
X7367182Y-28550531D01*
X7367182Y-28550531D02*
X7376705Y-28569579D01*
X7376705Y-28569579D02*
X7386229Y-28607674D01*
X7386229Y-28607674D02*
X7386229Y-28655293D01*
X7386229Y-28655293D02*
X7376705Y-28693388D01*
X7376705Y-28693388D02*
X7367182Y-28712436D01*
X7367182Y-28712436D02*
X7357658Y-28721960D01*
X7357658Y-28721960D02*
X7338610Y-28731484D01*
X7338610Y-28731484D02*
X7319562Y-28731484D01*
X7319562Y-28731484D02*
X7300515Y-28721960D01*
X7300515Y-28721960D02*
X7290991Y-28712436D01*
X7290991Y-28712436D02*
X7281467Y-28693388D01*
X7281467Y-28693388D02*
X7271943Y-28655293D01*
X7271943Y-28655293D02*
X7271943Y-28607674D01*
X7271943Y-28607674D02*
X7281467Y-28569579D01*
X7281467Y-28569579D02*
X7290991Y-28550531D01*
X7290991Y-28550531D02*
X7300515Y-28541008D01*
X7300515Y-28541008D02*
X7319562Y-28531484D01*
X7510039Y-28531484D02*
X7529086Y-28531484D01*
X7529086Y-28531484D02*
X7548134Y-28541008D01*
X7548134Y-28541008D02*
X7557658Y-28550531D01*
X7557658Y-28550531D02*
X7567182Y-28569579D01*
X7567182Y-28569579D02*
X7576705Y-28607674D01*
X7576705Y-28607674D02*
X7576705Y-28655293D01*
X7576705Y-28655293D02*
X7567182Y-28693388D01*
X7567182Y-28693388D02*
X7557658Y-28712436D01*
X7557658Y-28712436D02*
X7548134Y-28721960D01*
X7548134Y-28721960D02*
X7529086Y-28731484D01*
X7529086Y-28731484D02*
X7510039Y-28731484D01*
X7510039Y-28731484D02*
X7490991Y-28721960D01*
X7490991Y-28721960D02*
X7481467Y-28712436D01*
X7481467Y-28712436D02*
X7471943Y-28693388D01*
X7471943Y-28693388D02*
X7462420Y-28655293D01*
X7462420Y-28655293D02*
X7462420Y-28607674D01*
X7462420Y-28607674D02*
X7471943Y-28569579D01*
X7471943Y-28569579D02*
X7481467Y-28550531D01*
X7481467Y-28550531D02*
X7490991Y-28541008D01*
X7490991Y-28541008D02*
X7510039Y-28531484D01*
X7662420Y-28731484D02*
X7662420Y-28598150D01*
X7662420Y-28617198D02*
X7671943Y-28607674D01*
X7671943Y-28607674D02*
X7690991Y-28598150D01*
X7690991Y-28598150D02*
X7719563Y-28598150D01*
X7719563Y-28598150D02*
X7738610Y-28607674D01*
X7738610Y-28607674D02*
X7748134Y-28626722D01*
X7748134Y-28626722D02*
X7748134Y-28731484D01*
X7748134Y-28626722D02*
X7757658Y-28607674D01*
X7757658Y-28607674D02*
X7776705Y-28598150D01*
X7776705Y-28598150D02*
X7805277Y-28598150D01*
X7805277Y-28598150D02*
X7824324Y-28607674D01*
X7824324Y-28607674D02*
X7833848Y-28626722D01*
X7833848Y-28626722D02*
X7833848Y-28731484D01*
X7929086Y-28731484D02*
X7929086Y-28598150D01*
X7929086Y-28617198D02*
X7938610Y-28607674D01*
X7938610Y-28607674D02*
X7957658Y-28598150D01*
X7957658Y-28598150D02*
X7986229Y-28598150D01*
X7986229Y-28598150D02*
X8005277Y-28607674D01*
X8005277Y-28607674D02*
X8014801Y-28626722D01*
X8014801Y-28626722D02*
X8014801Y-28731484D01*
X8014801Y-28626722D02*
X8024324Y-28607674D01*
X8024324Y-28607674D02*
X8043372Y-28598150D01*
X8043372Y-28598150D02*
X8071943Y-28598150D01*
X8071943Y-28598150D02*
X8090991Y-28607674D01*
X8090991Y-28607674D02*
X8100515Y-28626722D01*
X8100515Y-28626722D02*
X8100515Y-28731484D01*
X8490991Y-28521960D02*
X8319563Y-28779103D01*
X8748134Y-28531484D02*
X8767182Y-28531484D01*
X8767182Y-28531484D02*
X8786229Y-28541008D01*
X8786229Y-28541008D02*
X8795753Y-28550531D01*
X8795753Y-28550531D02*
X8805277Y-28569579D01*
X8805277Y-28569579D02*
X8814801Y-28607674D01*
X8814801Y-28607674D02*
X8814801Y-28655293D01*
X8814801Y-28655293D02*
X8805277Y-28693388D01*
X8805277Y-28693388D02*
X8795753Y-28712436D01*
X8795753Y-28712436D02*
X8786229Y-28721960D01*
X8786229Y-28721960D02*
X8767182Y-28731484D01*
X8767182Y-28731484D02*
X8748134Y-28731484D01*
X8748134Y-28731484D02*
X8729087Y-28721960D01*
X8729087Y-28721960D02*
X8719563Y-28712436D01*
X8719563Y-28712436D02*
X8710039Y-28693388D01*
X8710039Y-28693388D02*
X8700515Y-28655293D01*
X8700515Y-28655293D02*
X8700515Y-28607674D01*
X8700515Y-28607674D02*
X8710039Y-28569579D01*
X8710039Y-28569579D02*
X8719563Y-28550531D01*
X8719563Y-28550531D02*
X8729087Y-28541008D01*
X8729087Y-28541008D02*
X8748134Y-28531484D01*
X8900515Y-28712436D02*
X8910039Y-28721960D01*
X8910039Y-28721960D02*
X8900515Y-28731484D01*
X8900515Y-28731484D02*
X8890991Y-28721960D01*
X8890991Y-28721960D02*
X8900515Y-28712436D01*
X8900515Y-28712436D02*
X8900515Y-28731484D01*
X9033848Y-28531484D02*
X9052896Y-28531484D01*
X9052896Y-28531484D02*
X9071944Y-28541008D01*
X9071944Y-28541008D02*
X9081468Y-28550531D01*
X9081468Y-28550531D02*
X9090991Y-28569579D01*
X9090991Y-28569579D02*
X9100515Y-28607674D01*
X9100515Y-28607674D02*
X9100515Y-28655293D01*
X9100515Y-28655293D02*
X9090991Y-28693388D01*
X9090991Y-28693388D02*
X9081468Y-28712436D01*
X9081468Y-28712436D02*
X9071944Y-28721960D01*
X9071944Y-28721960D02*
X9052896Y-28731484D01*
X9052896Y-28731484D02*
X9033848Y-28731484D01*
X9033848Y-28731484D02*
X9014801Y-28721960D01*
X9014801Y-28721960D02*
X9005277Y-28712436D01*
X9005277Y-28712436D02*
X8995753Y-28693388D01*
X8995753Y-28693388D02*
X8986229Y-28655293D01*
X8986229Y-28655293D02*
X8986229Y-28607674D01*
X8986229Y-28607674D02*
X8995753Y-28569579D01*
X8995753Y-28569579D02*
X9005277Y-28550531D01*
X9005277Y-28550531D02*
X9014801Y-28541008D01*
X9014801Y-28541008D02*
X9033848Y-28531484D01*
X9290991Y-28731484D02*
X9176706Y-28731484D01*
X9233848Y-28731484D02*
X9233848Y-28531484D01*
X9233848Y-28531484D02*
X9214801Y-28560055D01*
X9214801Y-28560055D02*
X9195753Y-28579103D01*
X9195753Y-28579103D02*
X9176706Y-28588627D01*
X9481468Y-28731484D02*
X9367182Y-28731484D01*
X9424325Y-28731484D02*
X9424325Y-28531484D01*
X9424325Y-28531484D02*
X9405277Y-28560055D01*
X9405277Y-28560055D02*
X9386229Y-28579103D01*
X9386229Y-28579103D02*
X9367182Y-28588627D01*
X9595753Y-28617198D02*
X9576706Y-28607674D01*
X9576706Y-28607674D02*
X9567182Y-28598150D01*
X9567182Y-28598150D02*
X9557658Y-28579103D01*
X9557658Y-28579103D02*
X9557658Y-28569579D01*
X9557658Y-28569579D02*
X9567182Y-28550531D01*
X9567182Y-28550531D02*
X9576706Y-28541008D01*
X9576706Y-28541008D02*
X9595753Y-28531484D01*
X9595753Y-28531484D02*
X9633849Y-28531484D01*
X9633849Y-28531484D02*
X9652896Y-28541008D01*
X9652896Y-28541008D02*
X9662420Y-28550531D01*
X9662420Y-28550531D02*
X9671944Y-28569579D01*
X9671944Y-28569579D02*
X9671944Y-28579103D01*
X9671944Y-28579103D02*
X9662420Y-28598150D01*
X9662420Y-28598150D02*
X9652896Y-28607674D01*
X9652896Y-28607674D02*
X9633849Y-28617198D01*
X9633849Y-28617198D02*
X9595753Y-28617198D01*
X9595753Y-28617198D02*
X9576706Y-28626722D01*
X9576706Y-28626722D02*
X9567182Y-28636246D01*
X9567182Y-28636246D02*
X9557658Y-28655293D01*
X9557658Y-28655293D02*
X9557658Y-28693388D01*
X9557658Y-28693388D02*
X9567182Y-28712436D01*
X9567182Y-28712436D02*
X9576706Y-28721960D01*
X9576706Y-28721960D02*
X9595753Y-28731484D01*
X9595753Y-28731484D02*
X9633849Y-28731484D01*
X9633849Y-28731484D02*
X9652896Y-28721960D01*
X9652896Y-28721960D02*
X9662420Y-28712436D01*
X9662420Y-28712436D02*
X9671944Y-28693388D01*
X9671944Y-28693388D02*
X9671944Y-28655293D01*
X9671944Y-28655293D02*
X9662420Y-28636246D01*
X9662420Y-28636246D02*
X9652896Y-28626722D01*
X9652896Y-28626722D02*
X9633849Y-28617198D01*
X9748134Y-28531484D02*
X9748134Y-28569579D01*
X9824325Y-28531484D02*
X9824325Y-28569579D01*
X10119563Y-28807674D02*
X10110039Y-28798150D01*
X10110039Y-28798150D02*
X10090991Y-28769579D01*
X10090991Y-28769579D02*
X10081468Y-28750531D01*
X10081468Y-28750531D02*
X10071944Y-28721960D01*
X10071944Y-28721960D02*
X10062420Y-28674341D01*
X10062420Y-28674341D02*
X10062420Y-28636246D01*
X10062420Y-28636246D02*
X10071944Y-28588627D01*
X10071944Y-28588627D02*
X10081468Y-28560055D01*
X10081468Y-28560055D02*
X10090991Y-28541008D01*
X10090991Y-28541008D02*
X10110039Y-28512436D01*
X10110039Y-28512436D02*
X10119563Y-28502912D01*
X10186230Y-28550531D02*
X10195753Y-28541008D01*
X10195753Y-28541008D02*
X10214801Y-28531484D01*
X10214801Y-28531484D02*
X10262420Y-28531484D01*
X10262420Y-28531484D02*
X10281468Y-28541008D01*
X10281468Y-28541008D02*
X10290991Y-28550531D01*
X10290991Y-28550531D02*
X10300515Y-28569579D01*
X10300515Y-28569579D02*
X10300515Y-28588627D01*
X10300515Y-28588627D02*
X10290991Y-28617198D01*
X10290991Y-28617198D02*
X10176706Y-28731484D01*
X10176706Y-28731484D02*
X10300515Y-28731484D01*
X10376706Y-28550531D02*
X10386230Y-28541008D01*
X10386230Y-28541008D02*
X10405277Y-28531484D01*
X10405277Y-28531484D02*
X10452896Y-28531484D01*
X10452896Y-28531484D02*
X10471944Y-28541008D01*
X10471944Y-28541008D02*
X10481468Y-28550531D01*
X10481468Y-28550531D02*
X10490991Y-28569579D01*
X10490991Y-28569579D02*
X10490991Y-28588627D01*
X10490991Y-28588627D02*
X10481468Y-28617198D01*
X10481468Y-28617198D02*
X10367182Y-28731484D01*
X10367182Y-28731484D02*
X10490991Y-28731484D01*
X10729087Y-28731484D02*
X10729087Y-28531484D01*
X10814801Y-28731484D02*
X10814801Y-28626722D01*
X10814801Y-28626722D02*
X10805277Y-28607674D01*
X10805277Y-28607674D02*
X10786230Y-28598150D01*
X10786230Y-28598150D02*
X10757658Y-28598150D01*
X10757658Y-28598150D02*
X10738611Y-28607674D01*
X10738611Y-28607674D02*
X10729087Y-28617198D01*
X10938611Y-28731484D02*
X10919563Y-28721960D01*
X10919563Y-28721960D02*
X10910039Y-28712436D01*
X10910039Y-28712436D02*
X10900515Y-28693388D01*
X10900515Y-28693388D02*
X10900515Y-28636246D01*
X10900515Y-28636246D02*
X10910039Y-28617198D01*
X10910039Y-28617198D02*
X10919563Y-28607674D01*
X10919563Y-28607674D02*
X10938611Y-28598150D01*
X10938611Y-28598150D02*
X10967182Y-28598150D01*
X10967182Y-28598150D02*
X10986230Y-28607674D01*
X10986230Y-28607674D02*
X10995753Y-28617198D01*
X10995753Y-28617198D02*
X11005277Y-28636246D01*
X11005277Y-28636246D02*
X11005277Y-28693388D01*
X11005277Y-28693388D02*
X10995753Y-28712436D01*
X10995753Y-28712436D02*
X10986230Y-28721960D01*
X10986230Y-28721960D02*
X10967182Y-28731484D01*
X10967182Y-28731484D02*
X10938611Y-28731484D01*
X11119563Y-28731484D02*
X11100515Y-28721960D01*
X11100515Y-28721960D02*
X11090992Y-28702912D01*
X11090992Y-28702912D02*
X11090992Y-28531484D01*
X11271944Y-28721960D02*
X11252896Y-28731484D01*
X11252896Y-28731484D02*
X11214801Y-28731484D01*
X11214801Y-28731484D02*
X11195753Y-28721960D01*
X11195753Y-28721960D02*
X11186230Y-28702912D01*
X11186230Y-28702912D02*
X11186230Y-28626722D01*
X11186230Y-28626722D02*
X11195753Y-28607674D01*
X11195753Y-28607674D02*
X11214801Y-28598150D01*
X11214801Y-28598150D02*
X11252896Y-28598150D01*
X11252896Y-28598150D02*
X11271944Y-28607674D01*
X11271944Y-28607674D02*
X11281468Y-28626722D01*
X11281468Y-28626722D02*
X11281468Y-28645769D01*
X11281468Y-28645769D02*
X11186230Y-28664817D01*
X11357658Y-28721960D02*
X11376706Y-28731484D01*
X11376706Y-28731484D02*
X11414801Y-28731484D01*
X11414801Y-28731484D02*
X11433849Y-28721960D01*
X11433849Y-28721960D02*
X11443372Y-28702912D01*
X11443372Y-28702912D02*
X11443372Y-28693388D01*
X11443372Y-28693388D02*
X11433849Y-28674341D01*
X11433849Y-28674341D02*
X11414801Y-28664817D01*
X11414801Y-28664817D02*
X11386230Y-28664817D01*
X11386230Y-28664817D02*
X11367182Y-28655293D01*
X11367182Y-28655293D02*
X11357658Y-28636246D01*
X11357658Y-28636246D02*
X11357658Y-28626722D01*
X11357658Y-28626722D02*
X11367182Y-28607674D01*
X11367182Y-28607674D02*
X11386230Y-28598150D01*
X11386230Y-28598150D02*
X11414801Y-28598150D01*
X11414801Y-28598150D02*
X11433849Y-28607674D01*
X11510039Y-28807674D02*
X11519563Y-28798150D01*
X11519563Y-28798150D02*
X11538611Y-28769579D01*
X11538611Y-28769579D02*
X11548134Y-28750531D01*
X11548134Y-28750531D02*
X11557658Y-28721960D01*
X11557658Y-28721960D02*
X11567182Y-28674341D01*
X11567182Y-28674341D02*
X11567182Y-28636246D01*
X11567182Y-28636246D02*
X11557658Y-28588627D01*
X11557658Y-28588627D02*
X11548134Y-28560055D01*
X11548134Y-28560055D02*
X11538611Y-28541008D01*
X11538611Y-28541008D02*
X11519563Y-28512436D01*
X11519563Y-28512436D02*
X11510039Y-28502912D01*
D12*
X6544500Y-28904000D02*
G75*
G02*
X6484500Y-28904000I-30000J0D01*
G01*
X6484500Y-28904000D02*
G75*
G02*
X6544500Y-28904000I30000J0D01*
G01*
D11*
X6843372Y-28795484D02*
X6862420Y-28795484D01*
X6862420Y-28795484D02*
X6881467Y-28805008D01*
X6881467Y-28805008D02*
X6890991Y-28814531D01*
X6890991Y-28814531D02*
X6900515Y-28833579D01*
X6900515Y-28833579D02*
X6910039Y-28871674D01*
X6910039Y-28871674D02*
X6910039Y-28919293D01*
X6910039Y-28919293D02*
X6900515Y-28957388D01*
X6900515Y-28957388D02*
X6890991Y-28976436D01*
X6890991Y-28976436D02*
X6881467Y-28985960D01*
X6881467Y-28985960D02*
X6862420Y-28995484D01*
X6862420Y-28995484D02*
X6843372Y-28995484D01*
X6843372Y-28995484D02*
X6824324Y-28985960D01*
X6824324Y-28985960D02*
X6814801Y-28976436D01*
X6814801Y-28976436D02*
X6805277Y-28957388D01*
X6805277Y-28957388D02*
X6795753Y-28919293D01*
X6795753Y-28919293D02*
X6795753Y-28871674D01*
X6795753Y-28871674D02*
X6805277Y-28833579D01*
X6805277Y-28833579D02*
X6814801Y-28814531D01*
X6814801Y-28814531D02*
X6824324Y-28805008D01*
X6824324Y-28805008D02*
X6843372Y-28795484D01*
X6995753Y-28976436D02*
X7005277Y-28985960D01*
X7005277Y-28985960D02*
X6995753Y-28995484D01*
X6995753Y-28995484D02*
X6986229Y-28985960D01*
X6986229Y-28985960D02*
X6995753Y-28976436D01*
X6995753Y-28976436D02*
X6995753Y-28995484D01*
X7176705Y-28795484D02*
X7138610Y-28795484D01*
X7138610Y-28795484D02*
X7119562Y-28805008D01*
X7119562Y-28805008D02*
X7110039Y-28814531D01*
X7110039Y-28814531D02*
X7090991Y-28843103D01*
X7090991Y-28843103D02*
X7081467Y-28881198D01*
X7081467Y-28881198D02*
X7081467Y-28957388D01*
X7081467Y-28957388D02*
X7090991Y-28976436D01*
X7090991Y-28976436D02*
X7100515Y-28985960D01*
X7100515Y-28985960D02*
X7119562Y-28995484D01*
X7119562Y-28995484D02*
X7157658Y-28995484D01*
X7157658Y-28995484D02*
X7176705Y-28985960D01*
X7176705Y-28985960D02*
X7186229Y-28976436D01*
X7186229Y-28976436D02*
X7195753Y-28957388D01*
X7195753Y-28957388D02*
X7195753Y-28909769D01*
X7195753Y-28909769D02*
X7186229Y-28890722D01*
X7186229Y-28890722D02*
X7176705Y-28881198D01*
X7176705Y-28881198D02*
X7157658Y-28871674D01*
X7157658Y-28871674D02*
X7119562Y-28871674D01*
X7119562Y-28871674D02*
X7100515Y-28881198D01*
X7100515Y-28881198D02*
X7090991Y-28890722D01*
X7090991Y-28890722D02*
X7081467Y-28909769D01*
X7319562Y-28795484D02*
X7338610Y-28795484D01*
X7338610Y-28795484D02*
X7357658Y-28805008D01*
X7357658Y-28805008D02*
X7367182Y-28814531D01*
X7367182Y-28814531D02*
X7376705Y-28833579D01*
X7376705Y-28833579D02*
X7386229Y-28871674D01*
X7386229Y-28871674D02*
X7386229Y-28919293D01*
X7386229Y-28919293D02*
X7376705Y-28957388D01*
X7376705Y-28957388D02*
X7367182Y-28976436D01*
X7367182Y-28976436D02*
X7357658Y-28985960D01*
X7357658Y-28985960D02*
X7338610Y-28995484D01*
X7338610Y-28995484D02*
X7319562Y-28995484D01*
X7319562Y-28995484D02*
X7300515Y-28985960D01*
X7300515Y-28985960D02*
X7290991Y-28976436D01*
X7290991Y-28976436D02*
X7281467Y-28957388D01*
X7281467Y-28957388D02*
X7271943Y-28919293D01*
X7271943Y-28919293D02*
X7271943Y-28871674D01*
X7271943Y-28871674D02*
X7281467Y-28833579D01*
X7281467Y-28833579D02*
X7290991Y-28814531D01*
X7290991Y-28814531D02*
X7300515Y-28805008D01*
X7300515Y-28805008D02*
X7319562Y-28795484D01*
X7510039Y-28795484D02*
X7529086Y-28795484D01*
X7529086Y-28795484D02*
X7548134Y-28805008D01*
X7548134Y-28805008D02*
X7557658Y-28814531D01*
X7557658Y-28814531D02*
X7567182Y-28833579D01*
X7567182Y-28833579D02*
X7576705Y-28871674D01*
X7576705Y-28871674D02*
X7576705Y-28919293D01*
X7576705Y-28919293D02*
X7567182Y-28957388D01*
X7567182Y-28957388D02*
X7557658Y-28976436D01*
X7557658Y-28976436D02*
X7548134Y-28985960D01*
X7548134Y-28985960D02*
X7529086Y-28995484D01*
X7529086Y-28995484D02*
X7510039Y-28995484D01*
X7510039Y-28995484D02*
X7490991Y-28985960D01*
X7490991Y-28985960D02*
X7481467Y-28976436D01*
X7481467Y-28976436D02*
X7471943Y-28957388D01*
X7471943Y-28957388D02*
X7462420Y-28919293D01*
X7462420Y-28919293D02*
X7462420Y-28871674D01*
X7462420Y-28871674D02*
X7471943Y-28833579D01*
X7471943Y-28833579D02*
X7481467Y-28814531D01*
X7481467Y-28814531D02*
X7490991Y-28805008D01*
X7490991Y-28805008D02*
X7510039Y-28795484D01*
X7662420Y-28995484D02*
X7662420Y-28862150D01*
X7662420Y-28881198D02*
X7671943Y-28871674D01*
X7671943Y-28871674D02*
X7690991Y-28862150D01*
X7690991Y-28862150D02*
X7719563Y-28862150D01*
X7719563Y-28862150D02*
X7738610Y-28871674D01*
X7738610Y-28871674D02*
X7748134Y-28890722D01*
X7748134Y-28890722D02*
X7748134Y-28995484D01*
X7748134Y-28890722D02*
X7757658Y-28871674D01*
X7757658Y-28871674D02*
X7776705Y-28862150D01*
X7776705Y-28862150D02*
X7805277Y-28862150D01*
X7805277Y-28862150D02*
X7824324Y-28871674D01*
X7824324Y-28871674D02*
X7833848Y-28890722D01*
X7833848Y-28890722D02*
X7833848Y-28995484D01*
X7929086Y-28995484D02*
X7929086Y-28862150D01*
X7929086Y-28881198D02*
X7938610Y-28871674D01*
X7938610Y-28871674D02*
X7957658Y-28862150D01*
X7957658Y-28862150D02*
X7986229Y-28862150D01*
X7986229Y-28862150D02*
X8005277Y-28871674D01*
X8005277Y-28871674D02*
X8014801Y-28890722D01*
X8014801Y-28890722D02*
X8014801Y-28995484D01*
X8014801Y-28890722D02*
X8024324Y-28871674D01*
X8024324Y-28871674D02*
X8043372Y-28862150D01*
X8043372Y-28862150D02*
X8071943Y-28862150D01*
X8071943Y-28862150D02*
X8090991Y-28871674D01*
X8090991Y-28871674D02*
X8100515Y-28890722D01*
X8100515Y-28890722D02*
X8100515Y-28995484D01*
X8490991Y-28785960D02*
X8319563Y-29043103D01*
X8748134Y-28795484D02*
X8767182Y-28795484D01*
X8767182Y-28795484D02*
X8786229Y-28805008D01*
X8786229Y-28805008D02*
X8795753Y-28814531D01*
X8795753Y-28814531D02*
X8805277Y-28833579D01*
X8805277Y-28833579D02*
X8814801Y-28871674D01*
X8814801Y-28871674D02*
X8814801Y-28919293D01*
X8814801Y-28919293D02*
X8805277Y-28957388D01*
X8805277Y-28957388D02*
X8795753Y-28976436D01*
X8795753Y-28976436D02*
X8786229Y-28985960D01*
X8786229Y-28985960D02*
X8767182Y-28995484D01*
X8767182Y-28995484D02*
X8748134Y-28995484D01*
X8748134Y-28995484D02*
X8729087Y-28985960D01*
X8729087Y-28985960D02*
X8719563Y-28976436D01*
X8719563Y-28976436D02*
X8710039Y-28957388D01*
X8710039Y-28957388D02*
X8700515Y-28919293D01*
X8700515Y-28919293D02*
X8700515Y-28871674D01*
X8700515Y-28871674D02*
X8710039Y-28833579D01*
X8710039Y-28833579D02*
X8719563Y-28814531D01*
X8719563Y-28814531D02*
X8729087Y-28805008D01*
X8729087Y-28805008D02*
X8748134Y-28795484D01*
X8900515Y-28976436D02*
X8910039Y-28985960D01*
X8910039Y-28985960D02*
X8900515Y-28995484D01*
X8900515Y-28995484D02*
X8890991Y-28985960D01*
X8890991Y-28985960D02*
X8900515Y-28976436D01*
X8900515Y-28976436D02*
X8900515Y-28995484D01*
X9033848Y-28795484D02*
X9052896Y-28795484D01*
X9052896Y-28795484D02*
X9071944Y-28805008D01*
X9071944Y-28805008D02*
X9081468Y-28814531D01*
X9081468Y-28814531D02*
X9090991Y-28833579D01*
X9090991Y-28833579D02*
X9100515Y-28871674D01*
X9100515Y-28871674D02*
X9100515Y-28919293D01*
X9100515Y-28919293D02*
X9090991Y-28957388D01*
X9090991Y-28957388D02*
X9081468Y-28976436D01*
X9081468Y-28976436D02*
X9071944Y-28985960D01*
X9071944Y-28985960D02*
X9052896Y-28995484D01*
X9052896Y-28995484D02*
X9033848Y-28995484D01*
X9033848Y-28995484D02*
X9014801Y-28985960D01*
X9014801Y-28985960D02*
X9005277Y-28976436D01*
X9005277Y-28976436D02*
X8995753Y-28957388D01*
X8995753Y-28957388D02*
X8986229Y-28919293D01*
X8986229Y-28919293D02*
X8986229Y-28871674D01*
X8986229Y-28871674D02*
X8995753Y-28833579D01*
X8995753Y-28833579D02*
X9005277Y-28814531D01*
X9005277Y-28814531D02*
X9014801Y-28805008D01*
X9014801Y-28805008D02*
X9033848Y-28795484D01*
X9176706Y-28814531D02*
X9186229Y-28805008D01*
X9186229Y-28805008D02*
X9205277Y-28795484D01*
X9205277Y-28795484D02*
X9252896Y-28795484D01*
X9252896Y-28795484D02*
X9271944Y-28805008D01*
X9271944Y-28805008D02*
X9281468Y-28814531D01*
X9281468Y-28814531D02*
X9290991Y-28833579D01*
X9290991Y-28833579D02*
X9290991Y-28852627D01*
X9290991Y-28852627D02*
X9281468Y-28881198D01*
X9281468Y-28881198D02*
X9167182Y-28995484D01*
X9167182Y-28995484D02*
X9290991Y-28995484D01*
X9357658Y-28795484D02*
X9481468Y-28795484D01*
X9481468Y-28795484D02*
X9414801Y-28871674D01*
X9414801Y-28871674D02*
X9443372Y-28871674D01*
X9443372Y-28871674D02*
X9462420Y-28881198D01*
X9462420Y-28881198D02*
X9471944Y-28890722D01*
X9471944Y-28890722D02*
X9481468Y-28909769D01*
X9481468Y-28909769D02*
X9481468Y-28957388D01*
X9481468Y-28957388D02*
X9471944Y-28976436D01*
X9471944Y-28976436D02*
X9462420Y-28985960D01*
X9462420Y-28985960D02*
X9443372Y-28995484D01*
X9443372Y-28995484D02*
X9386229Y-28995484D01*
X9386229Y-28995484D02*
X9367182Y-28985960D01*
X9367182Y-28985960D02*
X9357658Y-28976436D01*
X9652896Y-28795484D02*
X9614801Y-28795484D01*
X9614801Y-28795484D02*
X9595753Y-28805008D01*
X9595753Y-28805008D02*
X9586229Y-28814531D01*
X9586229Y-28814531D02*
X9567182Y-28843103D01*
X9567182Y-28843103D02*
X9557658Y-28881198D01*
X9557658Y-28881198D02*
X9557658Y-28957388D01*
X9557658Y-28957388D02*
X9567182Y-28976436D01*
X9567182Y-28976436D02*
X9576706Y-28985960D01*
X9576706Y-28985960D02*
X9595753Y-28995484D01*
X9595753Y-28995484D02*
X9633849Y-28995484D01*
X9633849Y-28995484D02*
X9652896Y-28985960D01*
X9652896Y-28985960D02*
X9662420Y-28976436D01*
X9662420Y-28976436D02*
X9671944Y-28957388D01*
X9671944Y-28957388D02*
X9671944Y-28909769D01*
X9671944Y-28909769D02*
X9662420Y-28890722D01*
X9662420Y-28890722D02*
X9652896Y-28881198D01*
X9652896Y-28881198D02*
X9633849Y-28871674D01*
X9633849Y-28871674D02*
X9595753Y-28871674D01*
X9595753Y-28871674D02*
X9576706Y-28881198D01*
X9576706Y-28881198D02*
X9567182Y-28890722D01*
X9567182Y-28890722D02*
X9557658Y-28909769D01*
X9748134Y-28795484D02*
X9748134Y-28833579D01*
X9824325Y-28795484D02*
X9824325Y-28833579D01*
X10119563Y-29071674D02*
X10110039Y-29062150D01*
X10110039Y-29062150D02*
X10090991Y-29033579D01*
X10090991Y-29033579D02*
X10081468Y-29014531D01*
X10081468Y-29014531D02*
X10071944Y-28985960D01*
X10071944Y-28985960D02*
X10062420Y-28938341D01*
X10062420Y-28938341D02*
X10062420Y-28900246D01*
X10062420Y-28900246D02*
X10071944Y-28852627D01*
X10071944Y-28852627D02*
X10081468Y-28824055D01*
X10081468Y-28824055D02*
X10090991Y-28805008D01*
X10090991Y-28805008D02*
X10110039Y-28776436D01*
X10110039Y-28776436D02*
X10119563Y-28766912D01*
X10233849Y-28795484D02*
X10252896Y-28795484D01*
X10252896Y-28795484D02*
X10271944Y-28805008D01*
X10271944Y-28805008D02*
X10281468Y-28814531D01*
X10281468Y-28814531D02*
X10290991Y-28833579D01*
X10290991Y-28833579D02*
X10300515Y-28871674D01*
X10300515Y-28871674D02*
X10300515Y-28919293D01*
X10300515Y-28919293D02*
X10290991Y-28957388D01*
X10290991Y-28957388D02*
X10281468Y-28976436D01*
X10281468Y-28976436D02*
X10271944Y-28985960D01*
X10271944Y-28985960D02*
X10252896Y-28995484D01*
X10252896Y-28995484D02*
X10233849Y-28995484D01*
X10233849Y-28995484D02*
X10214801Y-28985960D01*
X10214801Y-28985960D02*
X10205277Y-28976436D01*
X10205277Y-28976436D02*
X10195753Y-28957388D01*
X10195753Y-28957388D02*
X10186230Y-28919293D01*
X10186230Y-28919293D02*
X10186230Y-28871674D01*
X10186230Y-28871674D02*
X10195753Y-28833579D01*
X10195753Y-28833579D02*
X10205277Y-28814531D01*
X10205277Y-28814531D02*
X10214801Y-28805008D01*
X10214801Y-28805008D02*
X10233849Y-28795484D01*
X10538611Y-28995484D02*
X10538611Y-28795484D01*
X10624325Y-28995484D02*
X10624325Y-28890722D01*
X10624325Y-28890722D02*
X10614801Y-28871674D01*
X10614801Y-28871674D02*
X10595753Y-28862150D01*
X10595753Y-28862150D02*
X10567182Y-28862150D01*
X10567182Y-28862150D02*
X10548134Y-28871674D01*
X10548134Y-28871674D02*
X10538611Y-28881198D01*
X10748134Y-28995484D02*
X10729087Y-28985960D01*
X10729087Y-28985960D02*
X10719563Y-28976436D01*
X10719563Y-28976436D02*
X10710039Y-28957388D01*
X10710039Y-28957388D02*
X10710039Y-28900246D01*
X10710039Y-28900246D02*
X10719563Y-28881198D01*
X10719563Y-28881198D02*
X10729087Y-28871674D01*
X10729087Y-28871674D02*
X10748134Y-28862150D01*
X10748134Y-28862150D02*
X10776706Y-28862150D01*
X10776706Y-28862150D02*
X10795753Y-28871674D01*
X10795753Y-28871674D02*
X10805277Y-28881198D01*
X10805277Y-28881198D02*
X10814801Y-28900246D01*
X10814801Y-28900246D02*
X10814801Y-28957388D01*
X10814801Y-28957388D02*
X10805277Y-28976436D01*
X10805277Y-28976436D02*
X10795753Y-28985960D01*
X10795753Y-28985960D02*
X10776706Y-28995484D01*
X10776706Y-28995484D02*
X10748134Y-28995484D01*
X10929087Y-28995484D02*
X10910039Y-28985960D01*
X10910039Y-28985960D02*
X10900515Y-28966912D01*
X10900515Y-28966912D02*
X10900515Y-28795484D01*
X11081468Y-28985960D02*
X11062420Y-28995484D01*
X11062420Y-28995484D02*
X11024325Y-28995484D01*
X11024325Y-28995484D02*
X11005277Y-28985960D01*
X11005277Y-28985960D02*
X10995753Y-28966912D01*
X10995753Y-28966912D02*
X10995753Y-28890722D01*
X10995753Y-28890722D02*
X11005277Y-28871674D01*
X11005277Y-28871674D02*
X11024325Y-28862150D01*
X11024325Y-28862150D02*
X11062420Y-28862150D01*
X11062420Y-28862150D02*
X11081468Y-28871674D01*
X11081468Y-28871674D02*
X11090992Y-28890722D01*
X11090992Y-28890722D02*
X11090992Y-28909769D01*
X11090992Y-28909769D02*
X10995753Y-28928817D01*
X11167182Y-28985960D02*
X11186230Y-28995484D01*
X11186230Y-28995484D02*
X11224325Y-28995484D01*
X11224325Y-28995484D02*
X11243372Y-28985960D01*
X11243372Y-28985960D02*
X11252896Y-28966912D01*
X11252896Y-28966912D02*
X11252896Y-28957388D01*
X11252896Y-28957388D02*
X11243372Y-28938341D01*
X11243372Y-28938341D02*
X11224325Y-28928817D01*
X11224325Y-28928817D02*
X11195753Y-28928817D01*
X11195753Y-28928817D02*
X11176706Y-28919293D01*
X11176706Y-28919293D02*
X11167182Y-28900246D01*
X11167182Y-28900246D02*
X11167182Y-28890722D01*
X11167182Y-28890722D02*
X11176706Y-28871674D01*
X11176706Y-28871674D02*
X11195753Y-28862150D01*
X11195753Y-28862150D02*
X11224325Y-28862150D01*
X11224325Y-28862150D02*
X11243372Y-28871674D01*
X11490992Y-28919293D02*
X11643373Y-28919293D01*
X11567182Y-28995484D02*
X11567182Y-28843103D01*
X11976706Y-28862150D02*
X11976706Y-28995484D01*
X11929087Y-28785960D02*
X11881468Y-28928817D01*
X11881468Y-28928817D02*
X12005277Y-28928817D01*
X12224325Y-28985960D02*
X12243373Y-28995484D01*
X12243373Y-28995484D02*
X12281468Y-28995484D01*
X12281468Y-28995484D02*
X12300515Y-28985960D01*
X12300515Y-28985960D02*
X12310039Y-28966912D01*
X12310039Y-28966912D02*
X12310039Y-28957388D01*
X12310039Y-28957388D02*
X12300515Y-28938341D01*
X12300515Y-28938341D02*
X12281468Y-28928817D01*
X12281468Y-28928817D02*
X12252896Y-28928817D01*
X12252896Y-28928817D02*
X12233849Y-28919293D01*
X12233849Y-28919293D02*
X12224325Y-28900246D01*
X12224325Y-28900246D02*
X12224325Y-28890722D01*
X12224325Y-28890722D02*
X12233849Y-28871674D01*
X12233849Y-28871674D02*
X12252896Y-28862150D01*
X12252896Y-28862150D02*
X12281468Y-28862150D01*
X12281468Y-28862150D02*
X12300515Y-28871674D01*
X12424325Y-28995484D02*
X12405277Y-28985960D01*
X12405277Y-28985960D02*
X12395754Y-28966912D01*
X12395754Y-28966912D02*
X12395754Y-28795484D01*
X12529087Y-28995484D02*
X12510039Y-28985960D01*
X12510039Y-28985960D02*
X12500515Y-28976436D01*
X12500515Y-28976436D02*
X12490992Y-28957388D01*
X12490992Y-28957388D02*
X12490992Y-28900246D01*
X12490992Y-28900246D02*
X12500515Y-28881198D01*
X12500515Y-28881198D02*
X12510039Y-28871674D01*
X12510039Y-28871674D02*
X12529087Y-28862150D01*
X12529087Y-28862150D02*
X12557658Y-28862150D01*
X12557658Y-28862150D02*
X12576706Y-28871674D01*
X12576706Y-28871674D02*
X12586230Y-28881198D01*
X12586230Y-28881198D02*
X12595754Y-28900246D01*
X12595754Y-28900246D02*
X12595754Y-28957388D01*
X12595754Y-28957388D02*
X12586230Y-28976436D01*
X12586230Y-28976436D02*
X12576706Y-28985960D01*
X12576706Y-28985960D02*
X12557658Y-28995484D01*
X12557658Y-28995484D02*
X12529087Y-28995484D01*
X12652896Y-28862150D02*
X12729087Y-28862150D01*
X12681468Y-28795484D02*
X12681468Y-28966912D01*
X12681468Y-28966912D02*
X12690992Y-28985960D01*
X12690992Y-28985960D02*
X12710039Y-28995484D01*
X12710039Y-28995484D02*
X12729087Y-28995484D01*
X12786230Y-28985960D02*
X12805277Y-28995484D01*
X12805277Y-28995484D02*
X12843373Y-28995484D01*
X12843373Y-28995484D02*
X12862420Y-28985960D01*
X12862420Y-28985960D02*
X12871944Y-28966912D01*
X12871944Y-28966912D02*
X12871944Y-28957388D01*
X12871944Y-28957388D02*
X12862420Y-28938341D01*
X12862420Y-28938341D02*
X12843373Y-28928817D01*
X12843373Y-28928817D02*
X12814801Y-28928817D01*
X12814801Y-28928817D02*
X12795754Y-28919293D01*
X12795754Y-28919293D02*
X12786230Y-28900246D01*
X12786230Y-28900246D02*
X12786230Y-28890722D01*
X12786230Y-28890722D02*
X12795754Y-28871674D01*
X12795754Y-28871674D02*
X12814801Y-28862150D01*
X12814801Y-28862150D02*
X12843373Y-28862150D01*
X12843373Y-28862150D02*
X12862420Y-28871674D01*
X12938611Y-29071674D02*
X12948135Y-29062150D01*
X12948135Y-29062150D02*
X12967182Y-29033579D01*
X12967182Y-29033579D02*
X12976706Y-29014531D01*
X12976706Y-29014531D02*
X12986230Y-28985960D01*
X12986230Y-28985960D02*
X12995754Y-28938341D01*
X12995754Y-28938341D02*
X12995754Y-28900246D01*
X12995754Y-28900246D02*
X12986230Y-28852627D01*
X12986230Y-28852627D02*
X12976706Y-28824055D01*
X12976706Y-28824055D02*
X12967182Y-28805008D01*
X12967182Y-28805008D02*
X12948135Y-28776436D01*
X12948135Y-28776436D02*
X12938611Y-28766912D01*
D12*
X6494500Y-29118000D02*
X6494500Y-29218000D01*
X6444500Y-29168000D02*
X6544500Y-29168000D01*
D11*
X6910039Y-29259484D02*
X6795753Y-29259484D01*
X6852896Y-29259484D02*
X6852896Y-29059484D01*
X6852896Y-29059484D02*
X6833848Y-29088055D01*
X6833848Y-29088055D02*
X6814801Y-29107103D01*
X6814801Y-29107103D02*
X6795753Y-29116627D01*
X6995753Y-29240436D02*
X7005277Y-29249960D01*
X7005277Y-29249960D02*
X6995753Y-29259484D01*
X6995753Y-29259484D02*
X6986229Y-29249960D01*
X6986229Y-29249960D02*
X6995753Y-29240436D01*
X6995753Y-29240436D02*
X6995753Y-29259484D01*
X7129086Y-29059484D02*
X7148134Y-29059484D01*
X7148134Y-29059484D02*
X7167182Y-29069008D01*
X7167182Y-29069008D02*
X7176705Y-29078531D01*
X7176705Y-29078531D02*
X7186229Y-29097579D01*
X7186229Y-29097579D02*
X7195753Y-29135674D01*
X7195753Y-29135674D02*
X7195753Y-29183293D01*
X7195753Y-29183293D02*
X7186229Y-29221388D01*
X7186229Y-29221388D02*
X7176705Y-29240436D01*
X7176705Y-29240436D02*
X7167182Y-29249960D01*
X7167182Y-29249960D02*
X7148134Y-29259484D01*
X7148134Y-29259484D02*
X7129086Y-29259484D01*
X7129086Y-29259484D02*
X7110039Y-29249960D01*
X7110039Y-29249960D02*
X7100515Y-29240436D01*
X7100515Y-29240436D02*
X7090991Y-29221388D01*
X7090991Y-29221388D02*
X7081467Y-29183293D01*
X7081467Y-29183293D02*
X7081467Y-29135674D01*
X7081467Y-29135674D02*
X7090991Y-29097579D01*
X7090991Y-29097579D02*
X7100515Y-29078531D01*
X7100515Y-29078531D02*
X7110039Y-29069008D01*
X7110039Y-29069008D02*
X7129086Y-29059484D01*
X7319562Y-29059484D02*
X7338610Y-29059484D01*
X7338610Y-29059484D02*
X7357658Y-29069008D01*
X7357658Y-29069008D02*
X7367182Y-29078531D01*
X7367182Y-29078531D02*
X7376705Y-29097579D01*
X7376705Y-29097579D02*
X7386229Y-29135674D01*
X7386229Y-29135674D02*
X7386229Y-29183293D01*
X7386229Y-29183293D02*
X7376705Y-29221388D01*
X7376705Y-29221388D02*
X7367182Y-29240436D01*
X7367182Y-29240436D02*
X7357658Y-29249960D01*
X7357658Y-29249960D02*
X7338610Y-29259484D01*
X7338610Y-29259484D02*
X7319562Y-29259484D01*
X7319562Y-29259484D02*
X7300515Y-29249960D01*
X7300515Y-29249960D02*
X7290991Y-29240436D01*
X7290991Y-29240436D02*
X7281467Y-29221388D01*
X7281467Y-29221388D02*
X7271943Y-29183293D01*
X7271943Y-29183293D02*
X7271943Y-29135674D01*
X7271943Y-29135674D02*
X7281467Y-29097579D01*
X7281467Y-29097579D02*
X7290991Y-29078531D01*
X7290991Y-29078531D02*
X7300515Y-29069008D01*
X7300515Y-29069008D02*
X7319562Y-29059484D01*
X7510039Y-29059484D02*
X7529086Y-29059484D01*
X7529086Y-29059484D02*
X7548134Y-29069008D01*
X7548134Y-29069008D02*
X7557658Y-29078531D01*
X7557658Y-29078531D02*
X7567182Y-29097579D01*
X7567182Y-29097579D02*
X7576705Y-29135674D01*
X7576705Y-29135674D02*
X7576705Y-29183293D01*
X7576705Y-29183293D02*
X7567182Y-29221388D01*
X7567182Y-29221388D02*
X7557658Y-29240436D01*
X7557658Y-29240436D02*
X7548134Y-29249960D01*
X7548134Y-29249960D02*
X7529086Y-29259484D01*
X7529086Y-29259484D02*
X7510039Y-29259484D01*
X7510039Y-29259484D02*
X7490991Y-29249960D01*
X7490991Y-29249960D02*
X7481467Y-29240436D01*
X7481467Y-29240436D02*
X7471943Y-29221388D01*
X7471943Y-29221388D02*
X7462420Y-29183293D01*
X7462420Y-29183293D02*
X7462420Y-29135674D01*
X7462420Y-29135674D02*
X7471943Y-29097579D01*
X7471943Y-29097579D02*
X7481467Y-29078531D01*
X7481467Y-29078531D02*
X7490991Y-29069008D01*
X7490991Y-29069008D02*
X7510039Y-29059484D01*
X7662420Y-29259484D02*
X7662420Y-29126150D01*
X7662420Y-29145198D02*
X7671943Y-29135674D01*
X7671943Y-29135674D02*
X7690991Y-29126150D01*
X7690991Y-29126150D02*
X7719563Y-29126150D01*
X7719563Y-29126150D02*
X7738610Y-29135674D01*
X7738610Y-29135674D02*
X7748134Y-29154722D01*
X7748134Y-29154722D02*
X7748134Y-29259484D01*
X7748134Y-29154722D02*
X7757658Y-29135674D01*
X7757658Y-29135674D02*
X7776705Y-29126150D01*
X7776705Y-29126150D02*
X7805277Y-29126150D01*
X7805277Y-29126150D02*
X7824324Y-29135674D01*
X7824324Y-29135674D02*
X7833848Y-29154722D01*
X7833848Y-29154722D02*
X7833848Y-29259484D01*
X7929086Y-29259484D02*
X7929086Y-29126150D01*
X7929086Y-29145198D02*
X7938610Y-29135674D01*
X7938610Y-29135674D02*
X7957658Y-29126150D01*
X7957658Y-29126150D02*
X7986229Y-29126150D01*
X7986229Y-29126150D02*
X8005277Y-29135674D01*
X8005277Y-29135674D02*
X8014801Y-29154722D01*
X8014801Y-29154722D02*
X8014801Y-29259484D01*
X8014801Y-29154722D02*
X8024324Y-29135674D01*
X8024324Y-29135674D02*
X8043372Y-29126150D01*
X8043372Y-29126150D02*
X8071943Y-29126150D01*
X8071943Y-29126150D02*
X8090991Y-29135674D01*
X8090991Y-29135674D02*
X8100515Y-29154722D01*
X8100515Y-29154722D02*
X8100515Y-29259484D01*
X8490991Y-29049960D02*
X8319563Y-29307103D01*
X8748134Y-29059484D02*
X8767182Y-29059484D01*
X8767182Y-29059484D02*
X8786229Y-29069008D01*
X8786229Y-29069008D02*
X8795753Y-29078531D01*
X8795753Y-29078531D02*
X8805277Y-29097579D01*
X8805277Y-29097579D02*
X8814801Y-29135674D01*
X8814801Y-29135674D02*
X8814801Y-29183293D01*
X8814801Y-29183293D02*
X8805277Y-29221388D01*
X8805277Y-29221388D02*
X8795753Y-29240436D01*
X8795753Y-29240436D02*
X8786229Y-29249960D01*
X8786229Y-29249960D02*
X8767182Y-29259484D01*
X8767182Y-29259484D02*
X8748134Y-29259484D01*
X8748134Y-29259484D02*
X8729087Y-29249960D01*
X8729087Y-29249960D02*
X8719563Y-29240436D01*
X8719563Y-29240436D02*
X8710039Y-29221388D01*
X8710039Y-29221388D02*
X8700515Y-29183293D01*
X8700515Y-29183293D02*
X8700515Y-29135674D01*
X8700515Y-29135674D02*
X8710039Y-29097579D01*
X8710039Y-29097579D02*
X8719563Y-29078531D01*
X8719563Y-29078531D02*
X8729087Y-29069008D01*
X8729087Y-29069008D02*
X8748134Y-29059484D01*
X8900515Y-29240436D02*
X8910039Y-29249960D01*
X8910039Y-29249960D02*
X8900515Y-29259484D01*
X8900515Y-29259484D02*
X8890991Y-29249960D01*
X8890991Y-29249960D02*
X8900515Y-29240436D01*
X8900515Y-29240436D02*
X8900515Y-29259484D01*
X9033848Y-29059484D02*
X9052896Y-29059484D01*
X9052896Y-29059484D02*
X9071944Y-29069008D01*
X9071944Y-29069008D02*
X9081468Y-29078531D01*
X9081468Y-29078531D02*
X9090991Y-29097579D01*
X9090991Y-29097579D02*
X9100515Y-29135674D01*
X9100515Y-29135674D02*
X9100515Y-29183293D01*
X9100515Y-29183293D02*
X9090991Y-29221388D01*
X9090991Y-29221388D02*
X9081468Y-29240436D01*
X9081468Y-29240436D02*
X9071944Y-29249960D01*
X9071944Y-29249960D02*
X9052896Y-29259484D01*
X9052896Y-29259484D02*
X9033848Y-29259484D01*
X9033848Y-29259484D02*
X9014801Y-29249960D01*
X9014801Y-29249960D02*
X9005277Y-29240436D01*
X9005277Y-29240436D02*
X8995753Y-29221388D01*
X8995753Y-29221388D02*
X8986229Y-29183293D01*
X8986229Y-29183293D02*
X8986229Y-29135674D01*
X8986229Y-29135674D02*
X8995753Y-29097579D01*
X8995753Y-29097579D02*
X9005277Y-29078531D01*
X9005277Y-29078531D02*
X9014801Y-29069008D01*
X9014801Y-29069008D02*
X9033848Y-29059484D01*
X9167182Y-29059484D02*
X9290991Y-29059484D01*
X9290991Y-29059484D02*
X9224325Y-29135674D01*
X9224325Y-29135674D02*
X9252896Y-29135674D01*
X9252896Y-29135674D02*
X9271944Y-29145198D01*
X9271944Y-29145198D02*
X9281468Y-29154722D01*
X9281468Y-29154722D02*
X9290991Y-29173769D01*
X9290991Y-29173769D02*
X9290991Y-29221388D01*
X9290991Y-29221388D02*
X9281468Y-29240436D01*
X9281468Y-29240436D02*
X9271944Y-29249960D01*
X9271944Y-29249960D02*
X9252896Y-29259484D01*
X9252896Y-29259484D02*
X9195753Y-29259484D01*
X9195753Y-29259484D02*
X9176706Y-29249960D01*
X9176706Y-29249960D02*
X9167182Y-29240436D01*
X9386229Y-29259484D02*
X9424325Y-29259484D01*
X9424325Y-29259484D02*
X9443372Y-29249960D01*
X9443372Y-29249960D02*
X9452896Y-29240436D01*
X9452896Y-29240436D02*
X9471944Y-29211865D01*
X9471944Y-29211865D02*
X9481468Y-29173769D01*
X9481468Y-29173769D02*
X9481468Y-29097579D01*
X9481468Y-29097579D02*
X9471944Y-29078531D01*
X9471944Y-29078531D02*
X9462420Y-29069008D01*
X9462420Y-29069008D02*
X9443372Y-29059484D01*
X9443372Y-29059484D02*
X9405277Y-29059484D01*
X9405277Y-29059484D02*
X9386229Y-29069008D01*
X9386229Y-29069008D02*
X9376706Y-29078531D01*
X9376706Y-29078531D02*
X9367182Y-29097579D01*
X9367182Y-29097579D02*
X9367182Y-29145198D01*
X9367182Y-29145198D02*
X9376706Y-29164246D01*
X9376706Y-29164246D02*
X9386229Y-29173769D01*
X9386229Y-29173769D02*
X9405277Y-29183293D01*
X9405277Y-29183293D02*
X9443372Y-29183293D01*
X9443372Y-29183293D02*
X9462420Y-29173769D01*
X9462420Y-29173769D02*
X9471944Y-29164246D01*
X9471944Y-29164246D02*
X9481468Y-29145198D01*
X9652896Y-29126150D02*
X9652896Y-29259484D01*
X9605277Y-29049960D02*
X9557658Y-29192817D01*
X9557658Y-29192817D02*
X9681468Y-29192817D01*
X9748134Y-29059484D02*
X9748134Y-29097579D01*
X9824325Y-29059484D02*
X9824325Y-29097579D01*
X10119563Y-29335674D02*
X10110039Y-29326150D01*
X10110039Y-29326150D02*
X10090991Y-29297579D01*
X10090991Y-29297579D02*
X10081468Y-29278531D01*
X10081468Y-29278531D02*
X10071944Y-29249960D01*
X10071944Y-29249960D02*
X10062420Y-29202341D01*
X10062420Y-29202341D02*
X10062420Y-29164246D01*
X10062420Y-29164246D02*
X10071944Y-29116627D01*
X10071944Y-29116627D02*
X10081468Y-29088055D01*
X10081468Y-29088055D02*
X10090991Y-29069008D01*
X10090991Y-29069008D02*
X10110039Y-29040436D01*
X10110039Y-29040436D02*
X10119563Y-29030912D01*
X10186230Y-29078531D02*
X10195753Y-29069008D01*
X10195753Y-29069008D02*
X10214801Y-29059484D01*
X10214801Y-29059484D02*
X10262420Y-29059484D01*
X10262420Y-29059484D02*
X10281468Y-29069008D01*
X10281468Y-29069008D02*
X10290991Y-29078531D01*
X10290991Y-29078531D02*
X10300515Y-29097579D01*
X10300515Y-29097579D02*
X10300515Y-29116627D01*
X10300515Y-29116627D02*
X10290991Y-29145198D01*
X10290991Y-29145198D02*
X10176706Y-29259484D01*
X10176706Y-29259484D02*
X10300515Y-29259484D01*
X10471944Y-29059484D02*
X10433849Y-29059484D01*
X10433849Y-29059484D02*
X10414801Y-29069008D01*
X10414801Y-29069008D02*
X10405277Y-29078531D01*
X10405277Y-29078531D02*
X10386230Y-29107103D01*
X10386230Y-29107103D02*
X10376706Y-29145198D01*
X10376706Y-29145198D02*
X10376706Y-29221388D01*
X10376706Y-29221388D02*
X10386230Y-29240436D01*
X10386230Y-29240436D02*
X10395753Y-29249960D01*
X10395753Y-29249960D02*
X10414801Y-29259484D01*
X10414801Y-29259484D02*
X10452896Y-29259484D01*
X10452896Y-29259484D02*
X10471944Y-29249960D01*
X10471944Y-29249960D02*
X10481468Y-29240436D01*
X10481468Y-29240436D02*
X10490991Y-29221388D01*
X10490991Y-29221388D02*
X10490991Y-29173769D01*
X10490991Y-29173769D02*
X10481468Y-29154722D01*
X10481468Y-29154722D02*
X10471944Y-29145198D01*
X10471944Y-29145198D02*
X10452896Y-29135674D01*
X10452896Y-29135674D02*
X10414801Y-29135674D01*
X10414801Y-29135674D02*
X10395753Y-29145198D01*
X10395753Y-29145198D02*
X10386230Y-29154722D01*
X10386230Y-29154722D02*
X10376706Y-29173769D01*
X10729087Y-29259484D02*
X10729087Y-29059484D01*
X10814801Y-29259484D02*
X10814801Y-29154722D01*
X10814801Y-29154722D02*
X10805277Y-29135674D01*
X10805277Y-29135674D02*
X10786230Y-29126150D01*
X10786230Y-29126150D02*
X10757658Y-29126150D01*
X10757658Y-29126150D02*
X10738611Y-29135674D01*
X10738611Y-29135674D02*
X10729087Y-29145198D01*
X10938611Y-29259484D02*
X10919563Y-29249960D01*
X10919563Y-29249960D02*
X10910039Y-29240436D01*
X10910039Y-29240436D02*
X10900515Y-29221388D01*
X10900515Y-29221388D02*
X10900515Y-29164246D01*
X10900515Y-29164246D02*
X10910039Y-29145198D01*
X10910039Y-29145198D02*
X10919563Y-29135674D01*
X10919563Y-29135674D02*
X10938611Y-29126150D01*
X10938611Y-29126150D02*
X10967182Y-29126150D01*
X10967182Y-29126150D02*
X10986230Y-29135674D01*
X10986230Y-29135674D02*
X10995753Y-29145198D01*
X10995753Y-29145198D02*
X11005277Y-29164246D01*
X11005277Y-29164246D02*
X11005277Y-29221388D01*
X11005277Y-29221388D02*
X10995753Y-29240436D01*
X10995753Y-29240436D02*
X10986230Y-29249960D01*
X10986230Y-29249960D02*
X10967182Y-29259484D01*
X10967182Y-29259484D02*
X10938611Y-29259484D01*
X11119563Y-29259484D02*
X11100515Y-29249960D01*
X11100515Y-29249960D02*
X11090992Y-29230912D01*
X11090992Y-29230912D02*
X11090992Y-29059484D01*
X11271944Y-29249960D02*
X11252896Y-29259484D01*
X11252896Y-29259484D02*
X11214801Y-29259484D01*
X11214801Y-29259484D02*
X11195753Y-29249960D01*
X11195753Y-29249960D02*
X11186230Y-29230912D01*
X11186230Y-29230912D02*
X11186230Y-29154722D01*
X11186230Y-29154722D02*
X11195753Y-29135674D01*
X11195753Y-29135674D02*
X11214801Y-29126150D01*
X11214801Y-29126150D02*
X11252896Y-29126150D01*
X11252896Y-29126150D02*
X11271944Y-29135674D01*
X11271944Y-29135674D02*
X11281468Y-29154722D01*
X11281468Y-29154722D02*
X11281468Y-29173769D01*
X11281468Y-29173769D02*
X11186230Y-29192817D01*
X11357658Y-29249960D02*
X11376706Y-29259484D01*
X11376706Y-29259484D02*
X11414801Y-29259484D01*
X11414801Y-29259484D02*
X11433849Y-29249960D01*
X11433849Y-29249960D02*
X11443372Y-29230912D01*
X11443372Y-29230912D02*
X11443372Y-29221388D01*
X11443372Y-29221388D02*
X11433849Y-29202341D01*
X11433849Y-29202341D02*
X11414801Y-29192817D01*
X11414801Y-29192817D02*
X11386230Y-29192817D01*
X11386230Y-29192817D02*
X11367182Y-29183293D01*
X11367182Y-29183293D02*
X11357658Y-29164246D01*
X11357658Y-29164246D02*
X11357658Y-29154722D01*
X11357658Y-29154722D02*
X11367182Y-29135674D01*
X11367182Y-29135674D02*
X11386230Y-29126150D01*
X11386230Y-29126150D02*
X11414801Y-29126150D01*
X11414801Y-29126150D02*
X11433849Y-29135674D01*
X11510039Y-29335674D02*
X11519563Y-29326150D01*
X11519563Y-29326150D02*
X11538611Y-29297579D01*
X11538611Y-29297579D02*
X11548134Y-29278531D01*
X11548134Y-29278531D02*
X11557658Y-29249960D01*
X11557658Y-29249960D02*
X11567182Y-29202341D01*
X11567182Y-29202341D02*
X11567182Y-29164246D01*
X11567182Y-29164246D02*
X11557658Y-29116627D01*
X11557658Y-29116627D02*
X11548134Y-29088055D01*
X11548134Y-29088055D02*
X11538611Y-29069008D01*
X11538611Y-29069008D02*
X11519563Y-29040436D01*
X11519563Y-29040436D02*
X11510039Y-29030912D01*
M02*
